<!-- Generated by IcoMoon.io -->
<svg version="1.1" xmlns="http://www.w3.org/2000/svg" width="24" height="24" viewBox="0 0 24 24">
<title>app-menu</title>
<path d="M11.242 18.273h-7.582c-0.414 0-0.758-0.345-0.758-0.758s0.345-0.758 0.758-0.758v0h7.582c0.414 0 0.758 0.345 0.758 0.758s-0.345 0.758-0.758 0.758v0 0z"></path>
<path d="M20.341 7.175h-16.681c-0.345 0-0.689-0.345-0.689-0.689s0.345-0.758 0.758-0.758v0h16.612c0.414 0 0.758 0.345 0.758 0.758s-0.414 0.689-0.758 0.689v0z"></path>
<path d="M20.341 12.758h-16.681c-0.414 0-0.758-0.345-0.758-0.758s0.414-0.689 0.758-0.689v0h16.612c0.414 0 0.758 0.345 0.758 0.758s-0.345 0.689-0.689 0.689v0z"></path>
</svg>
