<!-- Generated by IcoMoon.io -->
<svg version="1.1"
    xmlns="http://www.w3.org/2000/svg" width="768" height="768" viewBox="0 0 768 768">
    <title></title>
    <path d="M392.124 235.496c-41.083 0-71.944-60.107-71.944-99.087-0.007-0.332-0.007-0.722-0.007-1.114 0-39.733 32.211-71.944 71.944-71.944s71.944 32.211 71.944 71.944c0 0.392-0.004 0.782-0.008 1.172l0.001-0.058c0 38.98-30.896 99.087-71.928 99.087zM392.124 82.13c-29.954 0.038-54.224 24.312-54.266 54.261v0.005c0 30.656 25.333 81.406 54.266 81.406s54.248-50.75 54.248-81.406c-0.050-29.94-24.308-54.198-54.242-54.248h-0.006z"></path>
    <path d="M521.902 344.216h-263.983c-0.009 0-0.022 0-0.035 0-4.873 0-8.823-3.95-8.823-8.823 0 0 0 0 0 0v0-58.366c0-0.026-0.001-0.056-0.001-0.087 0-4.054 2.728-7.472 6.453-8.515l0.063-0.015 103.309-28.382v-22.712c0-0.009 0-0.022 0-0.036 0-4.868 3.927-8.817 8.785-8.858h0.005c4.877 0.008 8.829 3.95 8.858 8.82v29.486c0 0.019 0 0.039 0 0.062 0 4.062-2.728 7.485-6.452 8.54l-0.063 0.015-103.309 28.382v42.769h246.284v-43.202l-99.482-29.072c-3.683-1.093-6.332-4.426-6.376-8.387v-0.006l-0.206-27.779c0-0.009 0-0.022 0-0.036 0-4.868 3.927-8.817 8.786-8.858h0.004c4.863 0.008 8.809 3.931 8.858 8.785v0.005l0.138 21.161 99.552 29.089c3.694 1.107 6.341 4.478 6.341 8.468 0 0.004 0 0.007 0 0.011v-0.001 58.694c0 0.010 0 0.022 0 0.036 0 4.827-3.885 8.747-8.696 8.804h-0.007z"></path>
    <path d="M567.017 595.929c-41.029 0-71.944-60.106-71.944-99.087-0.007-0.332-0.008-0.722-0.008-1.114 0-39.744 32.218-71.962 71.962-71.962s71.962 32.218 71.962 71.962c0 0.392-0.004 0.782-0.008 1.172l0.001-0.058c0 38.981-30.896 99.087-71.962 99.087zM567.017 442.562c-29.954 0.029-54.227 24.31-54.248 54.263v0.002c0 30.656 25.382 81.37 54.248 81.37s54.298-50.715 54.298-81.37c-0.038-29.963-24.332-54.237-54.297-54.248h-0.001z"></path>
    <path d="M696.827 704.648h-263.983c0 0 0 0 0 0-4.879 0-8.838-3.946-8.858-8.821v-58.369c0-0.026-0.001-0.056-0.001-0.087 0-4.054 2.728-7.472 6.453-8.515l0.063-0.015 103.309-28.382v-22.712c0 0 0 0 0 0 0-4.887 3.943-8.852 8.818-8.891h0.005c4.872 0.020 8.818 3.954 8.858 8.819v29.488c0.001 0.030 0.001 0.066 0.001 0.1 0 4.051-2.73 7.464-6.453 8.5l-0.062 0.015-103.394 28.415v42.769h246.32v-43.202l-99.517-29.054c-3.688-1.105-6.332-4.465-6.341-8.442v-0.001l-0.206-27.744c0-0.016 0-0.035 0-0.053 0-4.863 3.93-8.812 8.786-8.84h0.003c0 0 0 0 0 0 4.861 0 8.803 3.931 8.823 8.786v0.002l0.173 21.161 99.517 29.053c3.714 1.104 6.376 4.486 6.376 8.489 0 0.007 0 0.017 0 0.023v-0.001 58.676c-0.019 4.817-3.88 8.726-8.677 8.823h-0.008z"></path>
    <path d="M205.517 595.929c-41.030 0-71.944-60.106-71.944-99.087-0.007-0.332-0.007-0.722-0.007-1.114 0-39.744 32.218-71.962 71.962-71.962s71.962 32.218 71.962 71.962c0 0.392-0.004 0.782-0.008 1.172l0.001-0.058c0 38.981-30.896 99.087-71.962 99.087zM205.517 442.562c-29.963 0.020-54.245 24.303-54.266 54.263v0.002c0 30.656 25.382 81.37 54.266 81.37s54.248-50.715 54.248-81.37c-0.029-29.948-24.298-54.219-54.244-54.248h-0.003z"></path>
    <path d="M335.327 704.648h-264.016c-4.874 0-8.823-3.949-8.823-8.823v0-58.366c0-0.024-0.001-0.053-0.001-0.083 0-4.046 2.713-7.458 6.417-8.516l0.063-0.015 103.309-28.382v-22.712c0 0 0 0 0 0 0-4.887 3.943-8.852 8.819-8.891h0.005c0 0 0 0 0 0 4.879 0 8.838 3.946 8.858 8.821v29.486c0.001 0.033 0.001 0.071 0.001 0.111 0 4.038-2.713 7.445-6.418 8.491l-0.062 0.015-103.394 28.415v42.769h246.302v-43.202l-99.482-29.054c-3.699-1.099-6.354-4.457-6.376-8.44v-0.003l-0.173-27.744c0-0.022 0-0.045 0-0.068 0-4.847 3.912-8.785 8.751-8.823h0.004c0.006 0 0.011 0 0.018 0 4.863 0 8.811 3.929 8.84 8.785v0.003l0.138 21.161 99.552 29.053c3.697 1.12 6.341 4.499 6.341 8.493 0 0.008 0 0.014 0 0.023v-0.001 58.675c0 0.001 0 0.001 0 0.002 0 4.817-3.862 8.734-8.66 8.821h-0.007z"></path>
    <path d="M307.565 508.043c-3.148-0.014-5.909-1.651-7.493-4.117l-0.022-0.037c-0.848-1.331-1.349-2.954-1.349-4.697 0-3.14 1.637-5.899 4.106-7.466l0.037-0.022 82.354-51.817c1.293-0.78 2.854-1.241 4.523-1.241 4.892 0 8.858 3.965 8.858 8.858 0 3.065-1.555 5.766-3.923 7.357l-82.386 51.716c-1.329 0.88-2.949 1.421-4.694 1.466h-0.010z"></path>
    <path d="M474.461 510.507c-1.776-0.004-3.432-0.517-4.828-1.401l0.037 0.022-84.438-54.266c-2.46-1.6-4.066-4.335-4.066-7.445 0-4.887 3.961-8.847 8.847-8.847 1.777 0 3.431 0.523 4.817 1.424l-0.035-0.022 84.438 54.248c2.45 1.6 4.046 4.326 4.046 7.427 0 4.88-3.956 8.838-8.836 8.841v0z"></path>
    <path d="M389.919 456.244c0 0 0 0 0 0-4.879 0-8.838-3.946-8.858-8.821v-78.117c0-4.882 3.959-8.841 8.841-8.841s8.841 3.959 8.841 8.841v78.115c0 4.874-3.949 8.823-8.823 8.823v0z"></path>
</svg>
