<!-- Generated by IcoMoon.io -->
<svg version="1.1" xmlns="http://www.w3.org/2000/svg" width="768" height="768" viewBox="0 0 768 768">
<title></title>
<g id="icomoon-ignore">
</g>
<path d="M460.73 243.905c-0.007-42.371-34.356-76.718-76.73-76.718-42.377 0-76.73 34.354-76.73 76.73s34.354 76.73 76.73 76.73v0c42.358-0.053 76.682-34.381 76.73-76.735v-0.005zM325.444 243.905c0.007-32.335 26.221-58.545 58.556-58.545 32.34 0 58.556 26.216 58.556 58.556s-26.216 58.556-58.556 58.556v0c-32.329-0.037-58.523-26.238-58.556-58.562v-0.004z"></path>
<path d="M692.059 680.324l-74.076-194.198c-1.343-3.448-4.637-5.846-8.489-5.847h-140.197c0.857-1.397 1.709-2.752 2.566-4.154 53.944-89.311 81.091-167.437 80.702-232.176 0-0.007 0-0.019 0-0.029 0-93.097-75.472-168.569-168.569-168.569-93.089 0-168.553 75.455-168.569 168.539v0.002c-0.389 64.796 26.758 142.934 80.701 232.233 0.857 1.418 1.709 2.772 2.566 4.154h-140.197c-3.854 0.001-7.146 2.399-8.469 5.785l-0.022 0.062-74.066 194.198c-0.382 0.964-0.602 2.081-0.602 3.25 0 5.013 4.064 9.077 9.077 9.077 0.006 0 0.011 0 0.017 0h599.14c0.005 0 0.009 0 0.016 0 5.013 0 9.077-4.063 9.077-9.077 0-1.168-0.221-2.286-0.623-3.312l0.022 0.062zM233.605 243.905c0.015-83.050 67.343-150.37 150.395-150.37 83.061 0 150.395 67.334 150.395 150.395 0 0.008 0 0.019 0 0.027v-0.001c0.779 129.076-119.894 288.271-150.395 326.447-30.501-38.159-151.18-197.315-150.395-326.498zM377.077 590.654c1.677 1.962 4.155 3.199 6.923 3.199s5.245-1.237 6.911-3.188l0.010-0.012c22.364-27.047 44.414-57.119 64.696-88.445l2.287-3.769h145.323l11.631 30.505-283.983 100.999-101.223-131.521h80.432c22.572 35.1 44.626 65.179 68.305 93.865l-1.311-1.636zM330.559 649.33h0.051l169.414-60.233 65.711 85.381h-305.837zM164.762 498.425h41.955l106.145 137.923-107.188 38.123h-108.055zM588.693 674.477l-70.665-91.814 103.33-36.747 49.033 128.561z"></path>
</svg>
