<!-- Generated by IcoMoon.io -->
<svg version="1.1" xmlns="http://www.w3.org/2000/svg" width="768" height="768" viewBox="0 0 768 768">
<title></title>
<g id="icomoon-ignore">
</g>
<path d="M298.627 329.813c-9.75 0-19.5 3.501-19.5 11.751v158.998c0 8 9.75 12 19.5 12s19.5-4.002 19.5-12v-158.998c0-8.249-9.75-11.751-19.5-11.751z"></path>
<path d="M626.678 248.099l-176.778-176.778c-4.688-4.688-11.048-7.322-17.678-7.322h-273.222c-13.807 0-24.999 11.193-24.999 24.999v590.001c0 13.807 11.193 24.999 24.999 24.999h450c13.808 0 24.999-11.193 24.999-24.999v-413.223c0-6.631-2.633-12.99-7.322-17.678zM584.001 654h-399.999v-540h237.867l162.132 162.132v377.868z"></path>
<path d="M357.375 444.563v17.499c0 27.749 20.25 53.001 43.5 53.001 15.998 0 29.999-9.751 34.999-20.001v5.499c0 5.999 7.749 12 17.25 12 11.001 0 18.998-6.002 18.998-12v-163.251c0-6.997-8.001-11.746-18.999-11.746s-19.749 4.748-19.749 11.748v73.749c-5.25-9.751-16.5-18.998-31.748-18.998-24.5 0-44.248 23.751-44.248 52.497zM433.373 444.561v20.751c0 4.252-8.498 16-19.25 16-9.999 0-18-9.5-18-19.251h-0.001v-17.5c0-9.501 8.002-18.75 18.249-18.75 9 0 18.999 7.002 18.999 18.75z"></path>
</svg>
