<!-- Generated by IcoMoon.io -->
<svg version="1.1"
    xmlns="http://www.w3.org/2000/svg" width="768" height="768" viewBox="0 0 768 768">
    <title></title>
    <path d="M730.905 679.966l-62.873-348.195c-1.767-9.58-10.054-16.739-20.015-16.741h-149.927l15.998 15.974c5.578 5.56 9.551 12.726 11.166 20.746l0.043 0.262 13.964 71.503c0.478 2.344 0.754 5.035 0.754 7.792 0 22.479-18.222 40.7-40.699 40.7-2.839 0-5.609-0.292-8.282-0.844l0.262 0.046-71.132-14.309c-8.158-1.68-15.215-5.6-20.711-11.086l-131.153-130.781h-144.025c-9.871 0.003-18.097 7.037-19.945 16.364l-0.022 0.128-67.164 348.097c-0.236 1.163-0.371 2.5-0.371 3.869 0 11.233 9.106 20.337 20.337 20.337h653.782c0.001 0 0.002 0 0.003 0 11.233 0 20.337-9.107 20.337-20.337 0-1.281-0.118-2.532-0.344-3.746l0.020 0.127zM439.954 559.974h-132.070c-65.828-0.070-119.181-53.379-119.323-119.185v-0.013c0-11.238 9.11-20.352 20.352-20.352s20.352 9.11 20.352 20.352v0c0.056 43.399 35.224 78.564 78.617 78.623h132.1c11.238 0 20.352 9.11 20.352 20.352s-9.11 20.352-20.352 20.352v0zM606.548 572.498c-3.607 6.008-10.089 9.967-17.495 9.967-3.831 0-7.413-1.058-10.473-2.9l0.092 0.052-27.282-16.17-27.282 16.17c-2.967 1.789-6.55 2.847-10.381 2.847-11.236 0-20.345-9.108-20.345-20.345 0-7.406 3.958-13.889 9.872-17.446l0.092-0.052 8.134-4.835-8.134-4.835c-6.007-3.609-9.964-10.092-9.964-17.498 0-11.236 9.108-20.345 20.345-20.345 3.831 0 7.413 1.058 10.472 2.899l-0.092-0.052 27.282 16.17 27.282-16.17c2.967-1.789 6.55-2.847 10.381-2.847 11.236 0 20.345 9.108 20.345 20.345 0 7.406-3.958 13.889-9.872 17.446l-0.092 0.052-8.134 4.835 8.134 4.835c6.008 3.607 9.967 10.089 9.967 17.495 0 3.831-1.058 7.413-2.9 10.473l0.052-0.092z"></path>
    <path d="M200.241 75.466c-7.26-6.986-17.143-11.29-28.034-11.29-22.342 0-40.453 18.111-40.453 40.453 0 10.817 4.246 20.64 11.161 27.899l-0.016-0.017 15.974 15.923 57.194-57.169z"></path>
    <path d="M244.861 119.986l-57.169 57.218 198.044 197.548 57.194-57.193z"></path>
    <path d="M485.317 359.795l-13.591-13.543-57.194 57.194 13.591 13.543 71.132 14.309z"></path>
</svg>
