<!-- Generated by IcoMoon.io -->
<svg version="1.1" xmlns="http://www.w3.org/2000/svg" width="768" height="768" viewBox="0 0 768 768">
<title></title>
<g id="icomoon-ignore">
</g>
<path d="M396.52 591.524c0 6.906-5.598 12.503-12.503 12.503s-12.503-5.598-12.503-12.503c0-6.906 5.598-12.503 12.503-12.503v0c6.906 0 12.503 5.598 12.503 12.503v0z"></path>
<path d="M522.139 387.976c1.703 5.008 6.365 8.547 11.851 8.553h49.99c6.906 0 12.503-5.598 12.503-12.503s-5.598-12.503-12.503-12.503h-40.989l-22.154-66.445c-1.703-5.008-6.365-8.547-11.851-8.553h-40.196c-1.461-12.788-4.223-24.436-8.202-35.504l0.342 1.090 78.947-42.049c3.967-2.143 6.619-6.272 6.619-11.018 0-0.007 0-0.012 0-0.020v0.001-99.777l43.089-21.544c4.139-2.099 6.927-6.323 6.927-11.198 0-6.913-5.602-12.518-12.518-12.518-2.037 0-3.961 0.487-5.662 1.35l0.071-0.034-49.99 25.006c-4.126 2.1-6.904 6.315-6.904 11.18 0 0 0 0.001 0 0.001v0 100.022l-72.898 38.831c-1.466-1.679-2.983-3.209-4.591-4.639l-0.053-0.045c1.595-4.199 2.527-9.053 2.545-14.123v-0.007c-0.707-17.252-10.51-32.064-24.716-39.828l-0.248-0.125c0.502-27.918 15.338-52.263 37.437-66.045l0.337-0.195 5.273-2.648c4.139-2.099 6.927-6.323 6.927-11.198 0-6.913-5.603-12.518-12.518-12.518-2.037 0-3.961 0.487-5.662 1.35l0.071-0.034-5.272 2.627c-28.198 16.643-47.608 45.587-50.875 79.256l-0.034 0.423c-3.98-0.727-8.558-1.141-13.237-1.141s-9.256 0.414-13.703 1.209l0.469-0.068c-3.302-34.090-22.712-63.035-50.425-79.417l-0.481-0.263-5.272-2.627c-1.627-0.832-3.552-1.317-5.588-1.317-6.913 0-12.518 5.602-12.518 12.518 0 4.876 2.787 9.099 6.857 11.168l0.070 0.034 5.272 2.647c22.435 13.977 37.269 38.322 37.772 66.167l0.002 0.073c-14.416 7.905-24.188 22.703-24.879 39.838l-0.004 0.094c0.012 5.077 0.938 9.932 2.617 14.417l-0.094-0.286c-1.659 1.475-3.175 3.004-4.592 4.624l-0.053 0.060-72.898-38.831v-99.982c0 0 0-0.001 0-0.001 0-4.864-2.777-9.079-6.833-11.146l-0.070-0.033-50.050-24.984c-1.627-0.832-3.552-1.317-5.588-1.317-6.913 0-12.518 5.602-12.518 12.518 0 4.876 2.787 9.099 6.857 11.168l0.071 0.034 43.089 21.544v99.777c0 0.002 0 0.004 0 0.007 0 4.75 2.649 8.883 6.551 10.999l0.067 0.033 78.925 42.049c-3.632 9.976-6.397 21.623-7.793 33.684l-0.067 0.728h-40.177c-5.487 0.006-10.148 3.545-11.826 8.465l-0.025 0.088-22.154 66.384h-40.989c-6.906 0-12.503 5.598-12.503 12.503s5.598 12.503 12.503 12.503h49.99c5.487-0.006 10.148-3.545 11.826-8.465l0.025-0.088 22.154-66.464h29.12c-0.386 7.759-0.57 16.128-0.57 25.006 0 21.685 1.14 47.384 3.298 74.995h-15.803c-6.055 0.034-11.091 4.369-12.204 10.103l-0.012 0.079-23.641 125.293-68.033 22.684c-5.008 1.703-8.547 6.365-8.553 11.851v50.011c0 6.906 5.598 12.503 12.503 12.503s12.503-5.598 12.503-12.503v0-40.989l66.445-22.154c4.275-1.459 7.462-5.048 8.317-9.472l0.012-0.080 23.072-122.321h7.637c5.681 61.534 14.96 117.147 27.915 171.329l-1.646-8.162c16.128 65.161 33.313 94.342 55.734 94.342s39.523-29.098 55.57-94.259c11.308-46.019 20.587-101.632 25.907-158.395l0.361-4.774h7.637l23.071 122.321c0.862 4.503 4.052 8.096 8.242 9.524l0.088 0.026 66.445 22.154v40.91c0 6.906 5.598 12.503 12.503 12.503s12.503-5.598 12.503-12.503v0-50.094c-0.006-5.487-3.545-10.148-8.465-11.826l-0.088-0.025-68.033-22.685-23.642-125.293c-1.128-5.813-6.161-10.148-12.214-10.18h-15.804c2.159-27.611 3.298-53.309 3.298-74.996 0-8.878-0.184-17.247-0.57-25.006h29.058zM383.958 320.779l-60.091-20.036c0.917-16.763 6.38-32.084 15.162-44.961l-0.197 0.305c12.359 9.593 28.091 15.379 45.174 15.379s32.814-5.785 45.343-15.503l-0.17 0.127c8.527 12.454 13.964 27.633 14.895 44.018l0.010 0.233zM421.486 221.469c0 15.517-20.527 25.006-37.509 25.006-17.939 0-37.509-10.18-37.509-25.006 0-13.541 17.167-24.984 37.509-24.984s37.528 11.483 37.528 25.027zM416.517 599.261c-16.615 69.356-30.729 78.701-32.581 79.639-1.812-0.938-15.923-10.18-32.581-79.639-17.543-75.391-28.319-162.41-29.777-251.696l-0.013-1.047q0-10.589 0.386-20.036l49.625 16.535v198.478c0 6.906 5.598 12.503 12.503 12.503s12.503-5.598 12.503-12.503v0-198.496l49.603-16.861q0.386 9.592 0.386 20.363c-1.553 90.407-12.413 177.439-31.667 261.268l1.631-8.442z"></path>
</svg>
