<!-- Generated by IcoMoon.io -->
<svg version="1.1" xmlns="http://www.w3.org/2000/svg" width="768" height="768" viewBox="0 0 768 768">
<title></title>
<g id="icomoon-ignore">
</g>
<path d="M693.668 140.688h-619.338c-6.105 0-11.057 4.957-11.057 11.062v464.503c0 6.105 4.955 11.057 11.057 11.057h619.338c6.105 0 11.057-4.955 11.057-11.057v-464.503c0-6.105-4.955-11.062-11.057-11.062zM682.61 605.191h-597.217v-442.381h597.217v442.381z"></path>
<path d="M151.75 306.583h-44.24c-6.105 0-11.057 4.955-11.057 11.057v265.429c0 6.105 4.955 11.057 11.057 11.057h44.237c6.105 0 11.057-4.955 11.057-11.057v-265.43c0.004-6.101-4.951-11.057-11.056-11.057zM140.688 572.012h-22.12v-243.31h22.12v243.31z"></path>
<path d="M406.12 306.583h-44.236c-6.105 0-11.057 4.955-11.057 11.057v265.429c0 6.105 4.955 11.057 11.057 11.057h44.236c6.105 0 11.057-4.955 11.057-11.057v-265.43c0.004-6.101-4.955-11.057-11.057-11.057zM395.059 572.012h-22.12v-243.31h22.12v243.31z"></path>
<path d="M583.073 306.583h-44.236c-6.105 0-11.057 4.955-11.057 11.057v265.429c0 6.105 4.955 11.057 11.057 11.057h44.236c6.105 0 11.057-4.955 11.057-11.057v-265.43c0-6.101-4.955-11.057-11.057-11.057zM572.012 572.012h-22.12v-243.31h22.12v243.31z"></path>
<path d="M660.49 306.583h-44.236c-6.105 0-11.057 4.955-11.057 11.057v265.429c0 6.105 4.955 11.057 11.057 11.057h44.236c6.105 0 11.057-4.955 11.057-11.057v-265.43c0-6.101-4.955-11.057-11.057-11.057zM649.431 572.012h-22.12v-243.31h22.12v243.31z"></path>
<path d="M295.524 306.583h-44.237c-6.105 0-11.057 4.955-11.057 11.057v265.429c0 6.105 4.955 11.057 11.057 11.057h44.236c6.105 0 11.057-4.955 11.057-11.057v-265.43c0-6.101-4.955-11.057-11.057-11.057zM284.465 572.012h-22.12v-243.31h22.121v243.31z"></path>
<path d="M317.644 306.583h22.121v287.551h-22.121v-287.551z"></path>
<path d="M173.867 306.583h22.121v287.551h-22.12v-287.551z"></path>
<path d="M207.046 306.583h22.12v287.551h-22.121v-287.551z"></path>
<path d="M428.239 306.583h22.121v287.551h-22.121v-287.551z"></path>
<path d="M461.417 306.583h22.12v287.551h-22.12v-287.551z"></path>
<path d="M494.596 306.583h22.12v287.551h-22.12v-287.551z"></path>
<path d="M170.955 228.336c-6.050-3.629-13.609-5.291-21.167-5.291-3.629 0-5.744 0.299-8.012 0.602l3.781-25.25h37.497v-11.197h-47.024l-6.347 47.176c3.629-0.453 8.012-1.055 13.609-1.055 19.651 0 28.124 9.075 28.274 21.778 0 13.148-10.735 21.317-23.286 21.317-8.921 0-16.939-3.020-21.019-5.44l-3.327 10.132c4.688 3.027 13.763 6.050 24.499 6.050 21.316 0 36.591-14.36 36.591-33.564-0.004-12.404-6.35-20.87-14.065-25.254z"></path>
<path d="M255.625 248.293v-61.086h-14.366l-43.847 62.751v8.771h45.666v26.762h12.551v-26.762h13.758v-10.436h-13.76zM243.072 215.481v32.813h-32.21v-0.304l24.046-33.415c2.725-4.534 5.142-8.771 8.169-14.515h0.453c-0.308 5.142-0.457 10.282-0.457 15.424z"></path>
<path d="M326.072 228.336c-6.050-3.629-13.609-5.291-21.167-5.291-3.629 0-5.744 0.299-8.012 0.602l3.781-25.25h37.497v-11.197h-47.028l-6.347 47.176c3.629-0.453 8.012-1.055 13.609-1.055 19.651 0 28.124 9.075 28.273 21.778 0 13.148-10.735 21.317-23.286 21.317-8.921 0-16.94-3.020-21.019-5.44l-3.327 10.132c4.688 3.027 13.763 6.050 24.499 6.050 21.317 0 36.591-14.36 36.591-33.564 0-12.404-6.35-20.87-14.062-25.254z"></path>
<path d="M396.072 232.419v-0.304c12.092-4.385 18.145-13.006 18.145-23.137 0-11.944-8.771-23.435-28.124-23.435-10.585 0-20.558 3.779-25.703 7.558l3.476 9.677c4.235-3.027 11.795-6.503 19.657-6.503 12.248 0 17.238 6.956 17.238 14.821 0 11.645-12.248 16.634-21.926 16.634h-7.409v9.983h7.409c12.85 0 25.254 5.901 25.403 19.657 0.149 8.161-5.142 19.049-22.231 19.049-9.224 0-17.995-3.779-21.778-6.199l-3.622 10.282c4.837 3.176 14.515 6.652 25.554 6.652 23.584 0 35.832-13.758 35.832-29.486 0.004-13.76-9.821-22.829-21.923-25.25z"></path>
<path d="M488.297 248.293v-61.086h-14.366l-43.852 62.751v8.771h45.666v26.762h12.551v-26.762h13.758v-10.436h-13.758zM475.746 215.481v32.813h-32.21v-0.304l24.046-33.415c2.725-4.534 5.142-8.771 8.169-14.515h0.453c-0.308 5.142-0.457 10.282-0.457 15.424z"></path>
<path d="M558.741 228.336c-6.050-3.629-13.609-5.291-21.167-5.291-3.629 0-5.744 0.299-8.012 0.602l3.781-25.25h37.497v-11.197h-47.024l-6.347 47.176c3.629-0.453 8.012-1.055 13.609-1.055 19.651 0 28.124 9.075 28.273 21.778 0 13.148-10.735 21.317-23.286 21.317-8.921 0-16.94-3.020-21.019-5.44l-3.327 10.132c4.688 3.027 13.763 6.050 24.495 6.050 21.317 0 36.591-14.36 36.591-33.564 0-12.404-6.347-20.87-14.062-25.254z"></path>
<path d="M628.744 232.419v-0.304c12.092-4.385 18.145-13.006 18.145-23.137 0-11.944-8.771-23.435-28.124-23.435-10.585 0-20.558 3.779-25.703 7.558l3.476 9.677c4.235-3.027 11.794-6.503 19.657-6.503 12.248 0 17.238 6.956 17.238 14.821 0 11.645-12.248 16.634-21.926 16.634h-7.409v9.983h7.409c12.85 0 25.254 5.901 25.403 19.657 0.149 8.161-5.142 19.049-22.231 19.049-9.224 0-17.992-3.779-21.778-6.199l-3.622 10.282c4.837 3.176 14.515 6.652 25.554 6.652 23.585 0 35.832-13.758 35.832-29.486 0.004-13.76-9.825-22.829-21.923-25.25z"></path>
</svg>
