<!-- Generated by IcoMoon.io -->
<svg version="1.1" xmlns="http://www.w3.org/2000/svg" width="768" height="768" viewBox="0 0 768 768">
<title></title>
<g id="icomoon-ignore">
</g>
<path d="M338.068 507.951l-35.092 35.341c-0.455 0.457-0.972 0.553-1.327 0.553h-0.003c-0.354 0-0.873-0.096-1.327-0.548l-13.034-13.035c-3.66-3.663-9.595-3.661-13.257-0.001-3.662 3.661-3.662 9.597 0 13.257l13.033 13.036c3.896 3.894 9.074 6.039 14.583 6.039h0.038c5.523-0.009 10.707-2.172 14.602-6.093l35.093-35.343c3.648-3.673 3.625-9.609-0.048-13.257-3.676-3.648-9.609-3.625-13.258 0.048zM351.327 252.663c-3.675-3.649-9.609-3.627-13.259 0.048l-35.092 35.341c-0.455 0.458-0.972 0.552-1.327 0.552h-0.005c-0.354 0-0.873-0.096-1.327-0.548l-13.034-13.035c-3.66-3.662-9.595-3.663-13.257-0.002s-3.662 9.597 0 13.257l13.033 13.036c3.896 3.896 9.074 6.039 14.585 6.039h0.037c5.523-0.009 10.707-2.172 14.601-6.093l35.093-35.341c3.647-3.673 3.624-9.608-0.050-13.257zM351.327 380.283c-3.675-3.648-9.609-3.627-13.259 0.048l-35.092 35.341c-0.455 0.457-0.972 0.552-1.327 0.552h-0.005c-0.354 0-0.873-0.096-1.327-0.548l-13.034-13.035c-3.66-3.663-9.595-3.661-13.257-0.001-3.662 3.661-3.662 9.597 0 13.257l13.033 13.036c3.896 3.895 9.074 6.039 14.585 6.039h0.037c5.523-0.009 10.707-2.172 14.601-6.093l35.093-35.341c3.647-3.674 3.624-9.608-0.050-13.257zM292.562 242.183h-30.558c-11.373 0-20.625 9.252-20.625 20.625v67.621c0 11.373 9.252 20.625 20.625 20.625h67.622c11.373 0 20.625-9.252 20.625-20.625v-23.722c0-5.18-4.197-9.375-9.375-9.375s-9.375 4.195-9.375 9.375v23.722c0 1.034-0.841 1.875-1.875 1.875h-67.622c-1.034 0-1.875-0.841-1.875-1.875v-67.621c0-1.034 0.841-1.875 1.875-1.875h30.558c5.178 0 9.375-4.196 9.375-9.375s-4.197-9.375-9.375-9.375zM580.074 83.25h-42.975c-5.178 0-9.375 4.195-9.375 9.375s4.197 9.375 9.375 9.375h42.975c15.428 0 27.975 12.549 27.975 27.975v527.301c0 15.426-12.549 27.975-27.975 27.975h-392.151c-15.427 0-27.975-12.549-27.975-27.975v-527.301c0-15.426 12.549-27.975 27.975-27.975h71.003v18.6h-64.778c-8.602 0-15.6 6.998-15.6 15.599v386.067c0 5.179 4.197 9.375 9.375 9.375s9.375-4.196 9.375-9.375v-382.916h44.546c-1.028 2.913-1.592 6.039-1.592 9.298v26.002c0 15.468 12.582 28.050 28.049 28.050h231.392c15.466 0 28.048-12.582 28.048-28.050v-26.002c0-3.26-0.564-6.387-1.591-9.299h44.546v411.038h-48.649c-25.763 0-46.722 20.963-46.722 46.73v48.659h-278.028v-86.009c0-5.179-4.197-9.375-9.375-9.375s-9.375 4.196-9.375 9.375v89.159c0 8.603 6.998 15.598 15.6 15.598h290.55c2.493 0.005 4.875-1.003 6.63-2.746l95.376-95.388c1.596-1.605 2.572-3.773 2.716-6.030 0.006-0.083 0.030-423.951 0.030-424.163 0-8.602-6.998-15.599-15.6-15.599h-64.777v-26.008c-0.001-16.867-13.722-30.592-30.59-30.592h-188.967c-12.861 0-23.885 7.983-28.399 19.251h-73.192c-25.764 0-46.725 20.963-46.725 46.725v527.301c0 25.762 20.962 46.725 46.725 46.725h392.151c25.764 0 46.725-20.962 46.725-46.725v-527.301c0-25.762-20.961-46.725-46.725-46.725zM494.077 632.513v-35.392c0-15.428 12.548-27.98 27.972-27.98h35.392zM277.678 94.591c0-6.531 5.31-11.843 11.838-11.843h188.967c6.528 0 11.838 5.311 11.838 11.843v34.403c0 6.531-5.31 11.843-11.838 11.843h-188.967c-6.528 0-11.838-5.312-11.838-11.843zM259.005 148.65c0-2.614 1.087-4.974 2.827-6.667 4.894 10.387 15.459 17.599 27.683 17.599h188.967c12.222 0 22.791-7.209 27.683-17.599 1.741 1.69 2.827 4.053 2.827 6.667v26.003c0 5.129-4.172 9.3-9.298 9.3h-231.393c-5.127 0-9.298-4.173-9.298-9.3zM241.379 458.048c0 11.373 9.252 20.625 20.625 20.625h67.621c11.373 0 20.625-9.252 20.625-20.625v-23.722c0-5.179-4.197-9.375-9.375-9.375s-9.375 4.196-9.375 9.375v23.722c0 1.034-0.841 1.875-1.875 1.875h-67.622c-1.034 0-1.875-0.841-1.875-1.875v-67.622c0-1.034 0.841-1.875 1.875-1.875h30.558c5.178 0 9.375-4.196 9.375-9.375s-4.197-9.375-9.375-9.375h-30.558c-11.373 0-20.625 9.252-20.625 20.625zM383.531 516.173h133.716c5.178 0 9.375-4.196 9.375-9.375s-4.197-9.375-9.375-9.375h-133.716c-5.178 0-9.375 4.196-9.375 9.375s4.197 9.375 9.375 9.375zM241.379 585.668c0 11.373 9.252 20.625 20.625 20.625h67.621c11.373 0 20.625-9.252 20.625-20.625v-23.722c0-5.179-4.197-9.375-9.375-9.375s-9.375 4.196-9.375 9.375v23.722c0 1.034-0.841 1.875-1.875 1.875h-67.622c-1.034 0-1.875-0.841-1.875-1.875v-67.62c0-1.034 0.841-1.875 1.875-1.875h30.558c5.178 0 9.375-4.196 9.375-9.375s-4.197-9.375-9.375-9.375h-30.558c-11.373 0-20.625 9.252-20.625 20.625zM383.531 553.673h77.466c5.178 0 9.375-4.196 9.375-9.375s-4.197-9.375-9.375-9.375h-77.466c-5.178 0-9.375 4.196-9.375 9.375s4.197 9.375 9.375 9.375zM383.531 426.053h77.466c5.178 0 9.375-4.196 9.375-9.375s-4.197-9.375-9.375-9.375h-77.466c-5.178 0-9.375 4.196-9.375 9.375s4.197 9.375 9.375 9.375zM383.531 388.553h133.716c5.178 0 9.375-4.196 9.375-9.375s-4.197-9.375-9.375-9.375h-133.716c-5.178 0-9.375 4.196-9.375 9.375s4.197 9.375 9.375 9.375zM383.531 298.433h133.716c5.178 0 9.375-4.195 9.375-9.375s-4.197-9.375-9.375-9.375h-133.716c-5.178 0-9.375 4.196-9.375 9.375s4.197 9.375 9.375 9.375zM383.531 260.933h133.716c5.178 0 9.375-4.195 9.375-9.375s-4.197-9.375-9.375-9.375h-133.716c-5.178 0-9.375 4.196-9.375 9.375s4.197 9.375 9.375 9.375z"></path>
</svg>
