<!-- Generated by IcoMoon.io -->
<svg version="1.1" xmlns="http://www.w3.org/2000/svg" width="768" height="768" viewBox="0 0 768 768">
<title></title>
<g id="icomoon-ignore">
</g>
<path d="M384.034 593.657c-0.020 0-0.046 0-0.068 0-2.661 0-5.079-1.042-6.866-2.738l0.006 0.005c-6.288-5.933-154.403-147.65-154.403-318.293 0-110.586 60.318-176.62 161.321-176.62s161.321 66.034 161.321 176.62c0 170.616-148.127 312.362-154.417 318.293-1.78 1.694-4.193 2.734-6.851 2.734-0.014 0-0.027 0-0.041 0h0.003zM384.034 116.119c-127.444 0-141.225 109.465-141.225 156.509 0 141.389 111.954 266.479 141.225 296.665 29.23-30.241 141.184-155.334 141.184-296.665 0-47.055-13.793-156.522-141.184-156.522z"></path>
<path d="M357.909 348.175h-0.247c-3.205-0.103-6.018-1.681-7.8-4.074l-0.020-0.027-55.477-74.344c-1.246-1.654-1.992-3.746-1.992-6.009 0-5.553 4.502-10.051 10.051-10.051 3.287 0 6.205 1.578 8.039 4.016l0.020 0.025 47.85 64.063 99.54-120.416c1.856-2.23 4.634-3.638 7.738-3.638 5.551 0 10.051 4.501 10.051 10.051 0 2.445-0.871 4.686-2.325 6.429l0.013-0.017-107.689 130.301c-1.851 2.252-4.634 3.68-7.75 3.692h-0.002z"></path>
<path d="M384.034 671.993c-151.353 0-312.169-30.965-312.169-88.372 0-58.703 156.263-78.61 204.165-83.3 0.295-0.032 0.639-0.047 0.984-0.047 5.55 0 10.051 4.5 10.051 10.051 0 5.204-3.954 9.484-9.023 9.997l-0.043 0.005c-120.828 11.894-186.024 41.478-186.024 63.297 0 28.505 111.107 68.261 292.046 68.261s292.005-39.742 292.005-68.261c0-21.697-64.789-51.238-184.889-63.173-5.101-0.527-9.046-4.8-9.046-9.997 0-0.356 0.020-0.706 0.054-1.049l-0.005 0.044c0.592-5.128 4.909-9.073 10.148-9.073 0.303 0 0.601 0.013 0.896 0.038l-0.037-0.004c47.618 4.759 202.989 24.759 202.989 83.218 0.028 57.407-160.802 88.372-312.101 88.372z"></path>
</svg>
