<!-- Generated by IcoMoon.io -->
<svg version="1.1" xmlns="http://www.w3.org/2000/svg" width="768" height="768" viewBox="0 0 768 768">
<title></title>
<g id="icomoon-ignore">
</g>
<path d="M472.408 295.774c-8.273 0-14.981 6.708-14.981 14.981v0 283.282c0 8.273 6.708 14.981 14.981 14.981s14.981-6.708 14.981-14.981v0-283.196c0-0.024 0-0.053 0-0.082 0-8.273-6.708-14.981-14.981-14.981 0 0 0 0 0 0v0z"></path>
<path d="M295.564 295.774c-8.273 0-14.981 6.708-14.981 14.981v0 283.282c0 8.273 6.708 14.981 14.981 14.981s14.981-6.708 14.981-14.981v0-283.196c0-0.024 0-0.053 0-0.082 0-8.273-6.708-14.981-14.981-14.981 0 0 0 0 0 0v0z"></path>
<path d="M166.655 254.52v369.284c-0.003 0.251-0.005 0.549-0.005 0.847 0 21.71 8.365 41.469 22.051 56.224l-0.049-0.053c13.461 14.236 32.467 23.106 53.548 23.144h283.597c21.086-0.033 40.095-8.904 53.522-23.107l0.033-0.036c13.636-14.704 22.001-34.459 22.001-56.172 0-0.298-0.002-0.595-0.006-0.893l0.001 0.046v-369.284c24.725-6.694 42.616-28.928 42.616-55.343 0-31.614-25.628-57.242-57.242-57.242-0.025 0-0.053 0-0.079 0h-76.75v-18.726c0.001-0.092 0.001-0.202 0.001-0.308 0-32.509-26.355-58.864-58.864-58.864-0.168 0-0.335 0.001-0.502 0.002h-133.075c-0.15-0.001-0.326-0.002-0.503-0.002-32.509 0-58.864 26.355-58.864 58.864 0 0.118 0.001 0.237 0.002 0.355v-0.019 18.726h-76.724c-0.023 0-0.049 0-0.073 0-31.614 0-57.242 25.628-57.242 57.242 0 26.414 17.889 48.648 42.213 55.249l0.4 0.093zM525.795 674.033h-283.589c-25.425-1.034-45.645-21.895-45.645-47.478 0-0.998 0.031-1.987 0.091-2.966l-0.007 0.134v-367.859h374.736v367.945c0.052 0.821 0.080 1.78 0.080 2.748 0 25.593-20.233 46.458-45.574 47.477l-0.093 0.004zM288.213 123.207c-0.001-0.11-0.003-0.239-0.003-0.368 0-15.947 12.926-28.873 28.873-28.873 0.177 0 0.354 0.002 0.533 0.006l-0.026-0.001h133.103c0.151-0.004 0.327-0.005 0.505-0.005 15.946 0 28.874 12.926 28.874 28.874 0 0.128-0.001 0.259-0.003 0.387v-0.020 18.726h-191.994zM181.358 171.926h405.286c14.897 0 26.974 12.077 26.974 26.974s-12.077 26.974-26.974 26.974h-405.286c-14.897 0-26.974-12.076-26.974-26.974s12.076-26.974 26.974-26.974v0z"></path>
<path d="M384.001 295.774c-8.273 0-14.981 6.708-14.981 14.981v0 283.282c0 8.273 6.708 14.981 14.981 14.981s14.981-6.708 14.981-14.981v0-283.196c0-0.024 0-0.053 0-0.082 0-8.273-6.708-14.981-14.981-14.981 0 0 0 0 0 0v0z"></path>
</svg>
