<!-- Generated by IcoMoon.io -->
<svg version="1.1" xmlns="http://www.w3.org/2000/svg" width="768" height="768" viewBox="0 0 768 768">
<title></title>
<g id="icomoon-ignore">
</g>
<path d="M560.355 225.919h-67.619v-54.824c0-58.481-47.515-105.995-105.995-105.995 0 0 0 0 0 0h-1.828c-60.31 0-107.824 47.515-107.824 105.995v54.824h-69.445c-14.62 0-29.24 10.965-29.24 27.412 0 1.829 0 120.616 0 122.444 0 102.342 74.93 190.063 177.269 206.51v67.619h-73.102c-14.62 0-27.413 10.965-27.413 25.584s10.965 27.412 25.584 27.412c0 0 1.829 0 1.829 0h204.683c14.62 0 27.412-10.965 27.412-25.584s-10.965-27.412-25.584-27.412c0 0-1.828 0-1.828 0h-74.929v-67.619c102.342-14.62 177.268-102.342 177.268-206.51 0-1.828 0-120.616 0-122.444 0-14.621-12.792-27.412-29.24-27.412zM536.598 375.775c1.828 84.065-65.792 153.513-149.857 155.339s-153.513-65.792-155.338-149.857c0-1.828 0-3.655 0-5.482 0 0 0-62.135 0-95.032h43.861v109.652c0 58.481 47.515 105.995 105.995 105.995h1.828c58.481 0 105.995-47.515 105.995-105.995v0-109.652h43.861c3.655 32.894 3.655 95.032 3.655 95.032v0z"></path>
<path d="M557.809 95.702l12.27 7.948-368.635 569.053-12.27-7.948 368.636-569.053z"></path>
</svg>
