<!-- Generated by IcoMoon.io -->
<svg version="1.1" xmlns="http://www.w3.org/2000/svg" width="768" height="768" viewBox="0 0 768 768">
<title></title>
<g id="icomoon-ignore">
</g>
<path d="M560.548 225.804h-68.318v-54.843c0-59.071-47.887-106.957-106.957-106.957v0h-2.471c-59.075 0-106.964 47.885-106.974 106.957v54.844h-68.375c-0.179-0.004-0.391-0.007-0.603-0.007-15.352 0-27.983 11.663-29.51 26.616l-0.010 0.127c0 1.72 0.494 121.073 0.494 122.483 0.144 104.429 76.715 190.931 176.769 206.584l1.179 0.152v68.302h-74.564c-0.209-0.007-0.457-0.008-0.702-0.008-14.897 0-26.973 12.077-26.973 26.973s12.076 26.973 26.973 26.973c0.248 0 0.493-0.004 0.74-0.009l-0.038 0.001h205.618c0.209 0.007 0.457 0.008 0.702 0.008 14.897 0 26.973-12.076 26.973-26.973s-12.077-26.973-26.973-26.973c-0.248 0-0.493 0.004-0.74 0.009l0.038-0.001h-74.602v-68.302c101.227-15.812 177.787-102.31 177.931-206.72v-0.015c0-1.299 0.513-120.744 0.513-122.483-1.537-15.076-14.167-26.74-29.52-26.74-0.212 0-0.424 0.003-0.635 0.007l0.032-0.001zM536.249 375.022c0.018 0.862 0.027 1.875 0.027 2.891 0 84.081-68.161 152.241-152.241 152.241s-152.241-68.161-152.241-152.241c0-1.016 0.009-2.033 0.030-3.043l-0.003 0.152c0-0.329-0.202-61.361-0.31-95.219h44.332v110.563c0.010 59.073 47.902 106.957 106.974 106.957h2.471c59.071 0 106.957-47.887 106.957-106.957v0-110.636h44.332c-0.128 33.912-0.349 94.962-0.349 95.292z"></path>
</svg>
