<!-- Generated by IcoMoon.io -->
<svg version="1.1" xmlns="http://www.w3.org/2000/svg" width="768" height="768" viewBox="0 0 768 768">
<title></title>
<g id="icomoon-ignore">
</g>
<path d="M691.499 565.194c-104.393 0-206.857 42.822-281.113 117.487-4.873 4.898-4.849 12.813 0.043 17.677 2.44 2.426 5.625 3.638 8.818 3.638 3.208 0 6.415-1.225 8.862-3.683 69.599-69.982 165.601-110.117 263.39-110.117 6.905 0 12.501-5.596 12.501-12.501 0-6.899-5.596-12.501-12.501-12.501z"></path>
<path d="M430.836 553.618c-3.866-5.722-11.635-7.226-17.354-3.359-53.452 36.104-98.593 81.278-134.18 134.268-3.848 5.733-2.324 13.502 3.409 17.348 2.143 1.435 4.561 2.122 6.958 2.122 4.024 0 7.978-1.942 10.39-5.532 33.779-50.307 76.645-93.202 127.417-127.494 5.718-3.863 7.223-11.632 3.359-17.354z"></path>
<path d="M691.499 464.571c-55.883 0-111.197 9.547-164.399 28.373-6.508 2.301-9.917 9.443-7.612 15.952 1.811 5.132 6.637 8.334 11.783 8.334 1.382 0 2.788-0.233 4.17-0.723 50.517-17.875 103.023-26.938 156.059-26.938 6.905 0 12.501-5.596 12.501-12.501s-5.596-12.501-12.501-12.501z"></path>
<path d="M243.097 618.222c82.237-107.222 201.278-181.671 332.636-209.571 0.023-0.006 0.049-0.009 0.067-0.014 37.748-8.013 76.505-12.188 115.699-12.188 6.899 0 12.501-5.602 12.501-12.501 0-6.905-5.602-12.501-12.501-12.501-35.543 0-70.947 3.251-105.752 9.614v-26.982c45.181-38.246 69.982-88.364 69.982-141.733 0-55.18-26.51-106.884-74.647-145.591-4.575-3.677-11.092-3.677-15.668 0-48.135 38.707-74.648 90.411-74.648 145.591 0 53.369 24.803 103.487 69.982 141.733v32.094c-23.751 5.406-47.158 12.294-70.078 20.59v-73.189c0-3.438-1.388-6.548-3.633-8.81v-0.006l-69.999-70.416c-2.347-2.359-5.537-3.685-8.867-3.685h-142.914c-3.324 0-6.517 1.327-8.862 3.685l-69.999 70.419c-2.246 2.26-3.638 5.371-3.638 8.813v47.735c-8.71-1.598-17.461-3.004-26.25-4.205v-44.56c34.164-29.39 52.911-67.719 52.911-108.554 0-42.661-20.45-82.593-57.577-112.451-4.575-3.677-11.089-3.677-15.665 0-37.129 29.855-57.577 69.789-57.577 112.451 0 40.83 18.744 79.161 52.911 108.549v41.69c-18.228-1.703-36.577-2.584-54.999-2.584-6.905 0-12.501 5.596-12.501 12.501s5.596 12.501 12.501 12.501c99.953 0 197.715 26.445 283.9 76.615-20.648 14.033-40.372 29.362-59.044 45.86-69.83-35.576-147.416-54.352-224.857-54.352-6.899 0-12.501 5.596-12.501 12.501s5.602 12.501 12.501 12.501c70.462 0 141.068 16.388 205.215 47.505-19.003 18.383-36.768 38.051-53.159 58.842-48.623-20.392-99.728-30.723-152.056-30.723-6.899 0-12.501 5.596-12.501 12.501s5.602 12.501 12.501 12.501c46.875 0 92.706 8.888 136.484 26.387-8.637 12.002-16.846 24.332-24.565 36.987l-19.048 31.208c-3.599 5.887-1.732 13.582 4.155 17.178 2.035 1.245 4.282 1.837 6.502 1.837 4.207 0 8.325-2.135 10.678-5.993l19.048-31.207c9.932-16.274 20.662-31.933 32.105-46.968 0.449-0.499 0.869-1.029 1.237-1.613zM515.767 212.348c0-44.429 20.327-86.512 57.481-119.492 37.153 32.978 57.481 75.064 57.481 119.492 0 39.151-15.802 76.49-44.98 107.374v-95.723c0-6.905-5.596-12.501-12.501-12.501s-12.501 5.596-12.501 12.501v95.723c-29.183-30.884-44.98-68.223-44.98-107.374zM103.589 224c0-31.884 14.273-62.168 40.41-86.23 26.138 24.057 40.41 54.346 40.41 86.23 0 26.352-9.76 51.616-27.909 73.178v-83.18c0-6.905-5.596-12.501-12.501-12.501-6.899 0-12.501 5.596-12.501 12.501v83.18c-18.149-21.563-27.909-46.826-27.909-73.178zM448.117 321.079h-107.665l-45.146-45.414h107.666zM265.25 280.894l39.952 40.186h-79.898zM207.749 346.078h114.999v79.493c-5.797-2.666-11.626-5.243-17.499-7.719v-41.982c0-6.899-5.596-12.501-12.501-12.501h-54.999c-6.899 0-12.501 5.602-12.501 12.501v14.863c-5.812-1.514-11.641-2.948-17.499-4.286zM280.25 407.989c-9.911-3.652-19.913-7.042-30-10.15v-9.468h30zM347.75 437.802v-91.724h117.921v70.39c-21.412 8.873-42.335 18.998-62.618 30.385-6.485 3.638-12.892 7.418-19.223 11.293-11.815-7.217-23.847-14.002-36.080-20.347z"></path>
<path d="M573.247 188.998c3.286 0 6.514-1.339 8.839-3.667 2.324-2.324 3.662-5.546 3.662-8.833 0-3.292-1.333-6.514-3.662-8.839-2.324-2.33-5.552-3.662-8.839-3.662s-6.515 1.333-8.833 3.662c-2.33 2.324-3.668 5.546-3.668 8.839 0 3.287 1.339 6.508 3.668 8.833 2.318 2.324 5.546 3.667 8.833 3.667z"></path>
<path d="M464.747 520.585c-2.318 2.324-3.662 5.546-3.662 8.833 0 3.301 1.339 6.515 3.662 8.839 2.33 2.33 5.552 3.662 8.839 3.662 3.293 0 6.515-1.333 8.839-3.662 2.324-2.324 3.662-5.537 3.662-8.839 0-3.286-1.339-6.508-3.662-8.833-2.324-2.33-5.546-3.667-8.839-3.667-3.286 0-6.508 1.339-8.839 3.667z"></path>
</svg>
