<!-- Generated by IcoMoon.io -->
<svg version="1.1" xmlns="http://www.w3.org/2000/svg" width="768" height="768" viewBox="0 0 768 768">
<title></title>
<g id="icomoon-ignore">
</g>
<path d="M691.327 326.084c-0.005 0-0.006 0-0.012 0-2.453 0-4.751-0.68-6.712-1.857l0.057 0.031-300.929-173.708-300.878 173.708c-1.899 1.107-4.18 1.763-6.614 1.763-7.344 0-13.297-5.954-13.297-13.297 0-4.91 2.66-9.196 6.62-11.502l0.063-0.032 307.624-177.623c1.902-1.101 4.182-1.749 6.613-1.749s4.712 0.648 6.679 1.781l-0.065-0.033 307.624 177.623c4.175 2.28 6.955 6.638 6.955 11.644 0 7.307-5.921 13.227-13.227 13.227-0.138 0-0.276-0.003-0.414-0.006l0.019 0.001z"></path>
<path d="M630.931 655.798h-196.986c-7.357 0-13.321-5.963-13.321-13.321s5.963-13.321 13.321-13.321v0h183.653v-225.825l-233.894-121.694-233.947 121.694v225.825h183.813c7.358 0 13.321 5.963 13.321 13.321s-5.963 13.321-13.321 13.321v0h-197.094c-7.306 0-13.227-5.921-13.227-13.227v0-247.228c0.006-5.117 2.879-9.563 7.096-11.818l0.071-0.034 247.281-128.704c1.778-0.95 3.894-1.511 6.137-1.511s4.357 0.558 6.21 1.546l-0.070-0.033 247.228 128.704c4.29 2.246 7.17 6.666 7.17 11.759 0 0.032 0 0.066-0.001 0.097v-0.006 247.228c0 0.001 0 0.001 0 0.002 0 7.307-5.921 13.227-13.227 13.227-0.073 0-0.147-0.001-0.223-0.002h0.010z"></path>
<path d="M630.931 291.214c-7.306 0-13.227-5.921-13.227-13.227v0-139.342h-87.541v73.412c0 7.357-5.963 13.321-13.321 13.321s-13.321-5.963-13.321-13.321v0-86.747c0-7.306 5.921-13.227 13.227-13.227v0h114.236c7.306 0 13.227 5.921 13.227 13.227v0 152.675c0 0 0 0 0 0 0 7.306-5.92 13.227-13.227 13.227-0.019 0-0.037 0-0.057 0h0.004z"></path>
<path d="M433.945 655.798c-7.307 0-13.227-5.921-13.227-13.227v0-180.611h-73.679v180.611c0 7.373-5.974 13.348-13.348 13.348s-13.348-5.975-13.348-13.348v0-193.945c0-7.306 5.921-13.227 13.227-13.227v0h100.371c7.306 0 13.227 5.921 13.227 13.227v0 193.945c0 7.307-5.921 13.227-13.227 13.227v0z"></path>
</svg>
