<!-- Generated by IcoMoon.io -->
<svg version="1.1" xmlns="http://www.w3.org/2000/svg" width="32" height="32" viewBox="0 0 32 32">
<title>iuffi-search</title>
<path d="M28.386 23.682l-4.389-4.39c0.809-1.546 1.297-3.372 1.33-5.309l0-0.011c0-6.244-5.062-11.305-11.305-11.305s-11.305 5.062-11.305 11.305c0 6.244 5.062 11.305 11.305 11.305v0c1.948-0.034 3.774-0.523 5.386-1.364l-0.067 0.032 4.389 4.389c0.587 0.615 1.413 0.998 2.328 0.998s1.741-0.383 2.326-0.996l0.001-0.001c0.556-0.612 0.896-1.43 0.896-2.326s-0.34-1.714-0.899-2.329l0.003 0.003zM14.023 22.619c-4.775 0-8.646-3.871-8.646-8.646s3.871-8.646 8.646-8.646c4.775 0 8.646 3.871 8.646 8.646v0c0 0.005 0 0.010 0 0.016 0 4.765-3.863 8.628-8.628 8.628-0.006 0-0.012 0-0.018-0h0.001z"></path>
</svg>
