<!-- Generated by IcoMoon.io -->
<svg version="1.1" xmlns="http://www.w3.org/2000/svg" width="32" height="32" viewBox="0 0 32 32">
<title>iuffi-mission</title>
<path d="M12.028 24.22c-0.255-0.001-0.461-0.208-0.461-0.463 0 0 0 0 0 0v0-20.628c0-0.255 0.207-0.462 0.462-0.462s0.462 0.207 0.462 0.462v0 20.628c0 0 0 0 0 0.001 0 0.255-0.207 0.462-0.462 0.462-0.001 0-0.001 0-0.002 0h0z"></path>
<path d="M16.683 11.032l0.108 4.911c-0.255 0-0.462 0.207-0.462 0.462s0.207 0.462 0.462 0.462v0h11.589c0.001 0 0.002 0 0.004 0 0.255 0 0.462-0.207 0.462-0.462 0-0.152-0.074-0.288-0.188-0.372l-0.001-0.001-3.237-2.404 3.262-2.797c0.1-0.085 0.162-0.211 0.162-0.352 0-0.255-0.207-0.462-0.462-0.462h-11.589c-0.255 0-0.462 0.207-0.462 0.462s0.207 0.462 0.462 0.462v0z"></path>
<path d="M16.791 16.862c0 0 0 0 0 0-0.256 0-0.463-0.207-0.464-0.463v-5.923c0-0.001 0-0.001 0-0.002 0-0.126 0.051-0.239 0.133-0.322l-0 0 3.78-3.867h-8.211c-0.256 0-0.464-0.208-0.464-0.464s0.208-0.464 0.464-0.464v0h9.309c0 0 0.001 0 0.002 0 0.255 0 0.462 0.207 0.462 0.462 0 0.126-0.050 0.24-0.132 0.323l0-0-4.415 4.519v5.735c0 0 0 0.001 0 0.002 0 0.255-0.207 0.462-0.462 0.462-0 0-0.001 0-0.002 0h0z"></path>
<path d="M21.337 10.94c-0 0-0 0-0.001 0-0.254 0-0.46-0.206-0.46-0.46 0-0.001 0-0.001 0-0.002v0-4.655c0-0.255 0.207-0.462 0.462-0.462s0.462 0.207 0.462 0.462c0 0 0 0 0 0v0 4.655c0 0 0 0 0 0 0 0.255-0.207 0.462-0.462 0.462-0.001 0-0.002 0-0.002 0h0z"></path>
<path d="M16.683 11.954h-4.655c-0.255 0-0.462-0.207-0.462-0.462s0.207-0.462 0.462-0.462v0h4.655c0.255 0 0.462 0.207 0.462 0.462s-0.207 0.462-0.462 0.462v0z"></path>
<path d="M17.368 26.348h-10.65c-0.256-0-0.463-0.208-0.463-0.463v-2.128c0 0 0 0 0 0 0-0.255 0.207-0.462 0.462-0.462 0 0 0.001 0 0.002 0h10.65c0 0 0 0 0.001 0 0.255 0 0.462 0.207 0.462 0.462v2.128c-0 0.256-0.208 0.463-0.463 0.463h-0z"></path>
<path d="M20.47 29.334h-16.852c-0.256 0-0.463-0.207-0.463-0.463v0-2.987c0-0.256 0.207-0.463 0.463-0.463v0h16.852c0 0 0 0 0.001 0 0.256 0 0.463 0.207 0.463 0.463v0 2.987c-0 0.256-0.208 0.463-0.464 0.463 0 0 0 0 0 0v0z"></path>
</svg>
