<!-- Generated by IcoMoon.io -->
<svg version="1.1"
    xmlns="http://www.w3.org/2000/svg" width="768" height="768" viewBox="0 0 768 768">
    <title></title>
    <path d="M286.715 509.38c-0.031 0-0.067 0-0.104 0-122.998 0-222.707-99.709-222.707-222.707s99.709-222.707 222.707-222.707c122.998 0 222.706 99.709 222.706 222.707 0 61.498-24.925 117.173-65.227 157.476v0c-40.077 40.295-95.561 65.234-156.869 65.234-0.178 0-0.356 0-0.534-0.001h0.027zM286.715 86.117c-110.784 0.045-200.577 89.865-200.577 200.654 0 110.819 89.837 200.654 200.654 200.654s200.654-89.837 200.654-200.654c0-55.454-22.495-105.653-58.858-141.971l-0.002-0.002c-36.209-36.254-86.258-58.682-141.545-58.682-0.116 0-0.233 0-0.351 0h0.019z"></path>
    <path d="M414.566 528.482v0c-0.031 0-0.068 0.001-0.104 0.001-3.035 0-5.782-1.234-7.764-3.226l-38.714-38.714c-1.994-1.994-3.227-4.748-3.227-7.791 0-6.083 4.932-11.018 11.018-11.018 3.041 0 5.798 1.234 7.791 3.227l30.943 30.944 87.286-87.266-30.944-30.943c-1.994-1.994-3.227-4.748-3.227-7.791 0-6.083 4.932-11.018 11.018-11.018 3.041 0 5.798 1.234 7.791 3.227l38.734 38.735c1.992 1.99 3.225 4.742 3.225 7.779s-1.233 5.79-3.225 7.779v0l-102.865 102.845c-1.978 1.984-4.709 3.215-7.73 3.226h-0.003z"></path>
    <path d="M632.57 703.996h-1.712c-20.297-0.428-38.438-9.318-51.094-23.272l-0.053-0.059-156.905-172.151c-1.786-1.951-2.881-4.562-2.881-7.429 0-3.037 1.229-5.786 3.217-7.778v0l70.248-70.248c1.99-1.998 4.746-3.232 7.789-3.232 2.862 0 5.469 1.094 7.427 2.888l-0.008-0.007 172.169 156.925c14.359 13.132 23.33 31.946 23.33 52.858 0 39.487-31.987 71.502-71.462 71.548h-0.005zM446.099 501.374l149.843 164.381c8.809 9.685 21.363 15.831 35.356 16.131l0.053 0.001c0.53 0.022 1.15 0.034 1.776 0.034 13.471 0 25.645-5.557 34.352-14.5l0.010-0.010c8.954-8.957 14.493-21.328 14.493-34.994 0-14.469-6.208-27.489-16.106-36.537l-0.038-0.035-164.399-149.843z"></path>
</svg>
