<!-- Generated by IcoMoon.io -->
<svg version="1.1" xmlns="http://www.w3.org/2000/svg" width="768" height="768" viewBox="0 0 768 768">
<title></title>
<g id="icomoon-ignore">
</g>
<path d="M694.422 684.022h-20.537c-2.957-14.112-12.006-26.231-24.618-32.211-9.114-4.32-17.976-4.554-24.52-3.721-3.447-11.586-11.403-21.001-22.176-26.111-10.179-4.825-20-4.317-26.871-2.837-0.309-2.249 0-106.813 0-106.813l31.434-31.434h26.399c34.209 0 62.040-27.829 62.040-62.040v-25.284c0-7.922-6.446-14.366-14.366-14.366h-25.284c-34.209 0-62.040 27.829-62.040 62.040v26.399l-18.184 18.184v-107.322l18.664-18.665c24.188-24.189 24.188-63.549-0.001-87.737l-17.878-17.878c-2.712-2.713-6.321-4.208-10.158-4.208s-7.446 1.494-10.157 4.206l-17.878 17.878c-24.188 24.189-24.188 63.549 0 87.736l18.67 18.671v163.394l-18.049-18.049v-38.612c0-45.923-37.361-83.281-83.282-83.281h-37.496c-7.921 0-14.366 6.446-14.366 14.366v37.496c0 45.923 37.362 83.282 83.283 83.282h38.61l31.3 31.301v34.035c-14.321-13.209-36.079-27.097-65.628-29.398-0.571-0.045-5.815-0.418-13.889 0.154-5.162 0.366-9.047 4.849-8.682 10.010 0.366 5.162 4.851 9.032 10.010 8.682 6.81-0.486 11.060-0.169 11.105-0.163 38.113 2.965 60.859 29.572 68.871 40.874 3.964 5.592 11.264 7.941 17.755 5.724 4.452-1.524 11.199-2.661 18.039 0.584 6.33 3.003 11.076 9.066 12.688 16.219 1.846 8.187 9.824 13.37 18.147 11.822 3.952-0.74 9.912-1.028 15.86 1.792 6.177 2.929 10.889 8.516 13.261 15.279h-293.223c0.934-5.585 3.878-10.596 8.21-13.405 4.479-2.907 9.405-3.042 12.748-2.634 7.972 0.954 15.472-4.485 17.088-12.394 2.289-11.192 6.656-21.335 12.987-30.15 7.086-9.869 16.466-17.755 27.879-23.439 4.632-2.308 6.518-7.932 4.209-12.564-2.308-4.63-7.928-6.514-12.564-4.209-14.174 7.060-25.864 16.913-34.747 29.285-7.359 10.251-12.576 21.885-15.532 34.619-1.748-0.090-3.653-0.072-5.654 0.104-3.188-11.924-11.255-21.923-22.495-27.255-11.762-5.574-23.068-4.027-29.89-2.084-11.654-15.75-42.457-47.226-87.31-47.011v-59.375l31.365-31.365h26.398c34.209 0 62.040-27.829 62.040-62.040v-25.284c0-7.922-6.445-14.366-14.366-14.366h-25.284c-34.209 0-62.040 27.83-62.040 62.040v26.398l-18.115 18.115v-142.142l31.365-31.365h26.398c34.209 0 62.040-27.829 62.040-62.040v-25.284c0-7.922-6.446-14.366-14.366-14.366h-25.284c-34.209 0-62.040 27.829-62.040 62.042v26.398l-18.115 18.115v-124.633l18.666-18.666c24.188-24.189 24.188-63.549-0.001-87.737l-17.878-17.878c-2.712-2.713-6.321-4.207-10.158-4.207s-7.446 1.494-10.156 4.206l-17.879 17.878c-24.188 24.189-24.188 63.549 0 87.737l18.67 18.67v180.847l-18.119-18.119v-38.611c0-12.663-2.772-24.826-8.238-36.151-2.249-4.659-7.844-6.615-12.512-4.368-4.659 2.248-6.613 7.851-4.366 12.51 4.231 8.766 6.375 18.191 6.375 28.008v19.873l-36.683-36.681c-3.66-3.659-9.591-3.659-13.25 0s-3.659 9.591 0 13.248l36.684 36.684h-19.875c-35.589 0-64.544-28.954-64.544-64.543v-33.124h33.125c11.551 0 22.882 3.085 32.766 8.924 4.457 2.631 10.199 1.154 12.829-3.305 2.631-4.455 1.152-10.198-3.305-12.829-12.768-7.539-27.394-11.527-42.292-11.527h-37.496c-7.921 0-14.366 6.445-14.366 14.366v37.496c0 45.923 37.36 83.281 83.281 83.281h38.613l31.37 31.37v160.87l-11.835-11.835v-32.824c0-40.38-32.85-73.233-73.232-73.233h-31.719c-7.921 0-14.366 6.446-14.366 14.366v31.717c0 40.38 32.852 73.233 73.233 73.233h32.839l13.377 13.375c-19.024 4.76-41.637 15.191-57.845 37.758-7.338 10.224-12.552 21.843-15.526 34.612-6.208-0.315-14.388 0.657-22.273 5.775-9.656 6.265-15.777 17.22-16.871 29.121h-19.678c-5.177 0-9.369 4.192-9.369 9.369s4.193 9.369 9.369 9.369h620.847c5.177 0 9.369-4.193 9.369-9.369s-4.193-9.366-9.369-9.366zM612.623 441.242c0-23.877 19.425-43.302 43.302-43.302h20.911v20.911c0 23.877-19.425 43.302-43.302 43.302h-7.66l18.901-18.901c3.659-3.66 3.659-9.591 0-13.25-3.66-3.657-9.591-3.657-13.25 0l-18.902 18.901zM520.175 505.117l-36.681-36.683c-3.659-3.657-9.589-3.657-13.25 0-3.659 3.66-3.659 9.591 0 13.25l36.682 36.682h-19.874c-35.59 0-64.545-28.954-64.545-64.543v-33.125h33.124c35.589 0 64.543 28.954 64.543 64.543v19.875zM566.327 315.908c-5.177 0-9.369 4.194-9.369 9.369v26.73l-5.416-5.416c-16.884-16.884-16.884-44.354-0.001-61.238l14.787-14.786 14.785 14.786c16.884 16.884 16.884 44.354 0.001 61.238l-5.418 5.418v-26.731c0-5.175-4.192-9.369-9.369-9.369zM273.062 442.49c0-23.877 19.425-43.302 43.302-43.302h20.911v20.911c0 23.877-19.425 43.302-43.302 43.302h-7.661l18.901-18.901c3.659-3.66 3.659-9.591 0-13.25-3.66-3.657-9.591-3.657-13.249 0l-18.902 18.902zM273.062 273.851c0-23.877 19.425-43.303 43.302-43.303h20.911v20.911c0 23.877-19.425 43.302-43.302 43.302h-7.661l18.901-18.901c3.659-3.659 3.659-9.591 0-13.248s-9.589-3.66-13.249 0l-18.902 18.902zM186.899 531.389l-29.519-29.518c-3.66-3.657-9.591-3.657-13.249 0-3.659 3.66-3.659 9.591 0 13.25l29.518 29.519h-14.097c-30.050 0-54.495-24.446-54.495-54.495v-27.345h27.348c30.048 0 54.493 24.446 54.493 54.495zM217.467 140.503v26.731l-5.416-5.416c-16.884-16.884-16.884-44.354-0.001-61.238l14.787-14.785 14.786 14.785c16.884 16.884 16.884 44.354 0 61.238l-5.416 5.417v-26.731c0-5.175-4.192-9.369-9.369-9.369s-9.369 4.194-9.369 9.369zM342.409 684.022h-114.819c-0.248-0.021-0.496-0.038-0.75-0.038s-0.5 0.019-0.75 0.038h-113.97c0.934-5.587 3.877-10.597 8.205-13.403 4.487-2.911 9.417-3.040 12.753-2.64 7.992 0.952 15.492-4.49 17.082-12.378 2.305-11.215 6.673-21.366 12.987-30.16 26.685-37.161 77.067-33.753 77.57-33.712 38.137 2.967 60.867 29.571 68.881 40.887 3.977 5.592 11.284 7.933 17.74 5.709 4.462-1.518 11.216-2.65 18.042 0.584 6.673 3.168 11.333 9.391 12.801 16.772-9.016 6.372-14.725 16.918-15.774 28.341z"></path>
</svg>
