<!-- Generated by IcoMoon.io -->
<svg version="1.1" xmlns="http://www.w3.org/2000/svg" width="768" height="768" viewBox="0 0 768 768">
<title></title>
<g id="icomoon-ignore">
</g>
<path d="M696.23 652.284l-36.601-201.815c-0.903-4.983-5.675-8.29-10.658-7.386-4.983 0.903-8.288 5.676-7.385 10.658l15.476 85.33-119.312-138.588 80.246-17.91 11.883 6.613 5.16 28.449c0.903 4.983 5.674 8.287 10.658 7.386 4.983-0.903 8.288-5.676 7.386-10.658l-5.934-32.718c-0.49-2.701-2.164-5.041-4.56-6.376l-18.721-10.421c0 0 0 0-0.001 0l-104.815-58.346c-0.002 0-0.003-0.002-0.003-0.002-0.005-0.001-0.007-0.004-0.009-0.007-0.352-0.195-0.713-0.363-1.083-0.508-0.115-0.046-0.234-0.075-0.352-0.115-0.256-0.090-0.517-0.176-0.779-0.243-0.15-0.038-0.298-0.058-0.452-0.089-0.236-0.046-0.472-0.093-0.711-0.121-0.162-0.020-0.32-0.026-0.483-0.035-0.23-0.015-0.462-0.027-0.692-0.024-0.163 0.002-0.328 0.013-0.492 0.022-0.228 0.015-0.453 0.034-0.681 0.067-0.163 0.022-0.33 0.052-0.492 0.085-0.222 0.045-0.441 0.096-0.661 0.154-0.163 0.046-0.328 0.094-0.49 0.149-0.213 0.072-0.423 0.153-0.631 0.242-0.162 0.069-0.32 0.137-0.48 0.214-0.071 0.033-0.141 0.058-0.21 0.093l-20.949 10.918c15.585-29.060 23.457-57.202 23.457-84.126 0-70.729-57.543-128.269-128.269-128.269s-128.263 57.543-128.263 128.269c0 27.186 8.019 55.615 23.908 84.974l-22.574-11.767c-0.070-0.036-0.144-0.060-0.216-0.096-0.153-0.075-0.312-0.141-0.468-0.207-0.212-0.089-0.425-0.173-0.64-0.245-0.161-0.054-0.321-0.101-0.485-0.147-0.219-0.058-0.44-0.111-0.661-0.156-0.163-0.033-0.332-0.061-0.496-0.085-0.224-0.033-0.449-0.051-0.674-0.066-0.168-0.011-0.336-0.021-0.504-0.024-0.225-0.003-0.448 0.009-0.673 0.022-0.168 0.011-0.336 0.018-0.504 0.038-0.229 0.027-0.453 0.072-0.68 0.115-0.161 0.033-0.32 0.055-0.478 0.096-0.25 0.063-0.495 0.148-0.739 0.231-0.128 0.045-0.258 0.078-0.386 0.127-0.369 0.146-0.728 0.314-1.079 0.507-0.004 0.001-0.007 0.004-0.009 0.007-0.001 0-0.001 0.001-0.003 0.001l-123.535 68.768c-2.4 1.335-4.074 3.673-4.56 6.376l-34.796 191.857c-0.903 4.981 2.403 9.755 7.386 10.658 4.985 0.908 9.754-2.403 10.657-7.386l10.439-57.557 118.676-62.736-9.544 123.23-130.751 58.708 4.6-25.38c0.903-4.982-2.401-9.753-7.385-10.658-4.978-0.9-9.753 2.403-10.657 7.386l-7.711 42.513c-0.608 3.348 0.69 6.758 3.369 8.856 1.642 1.287 3.639 1.948 5.652 1.948 1.273 0 2.553-0.265 3.755-0.805l147.848-66.386 147.784 66.357c0.005 0.002 0.007 0.005 0.010 0.006l0.050 0.021c0.084 0.038 0.169 0.063 0.255 0.098 0.137 0.057 0.272 0.11 0.412 0.159 0.134 0.047 0.269 0.096 0.404 0.137 0.087 0.027 0.176 0.050 0.264 0.073 0.114 0.033 0.229 0.062 0.346 0.089 0.19 0.045 0.384 0.078 0.575 0.111 0.092 0.015 0.182 0.036 0.274 0.048 0.062 0.007 0.125 0.018 0.188 0.024 0.308 0.035 0.617 0.054 0.923 0.058 0.039 0 0.078 0.007 0.117 0.007 0.019 0 0.039-0.005 0.058-0.005 0.372-0.003 0.74-0.033 1.108-0.081 0.046-0.007 0.091-0.005 0.137-0.010 0.071-0.009 0.137-0.033 0.209-0.045 0.286-0.047 0.573-0.111 0.857-0.188 0.078-0.019 0.158-0.033 0.235-0.055 0.007-0.003 0.017-0.003 0.024-0.006 0.025-0.007 0.048-0.019 0.073-0.030 0.357-0.111 0.707-0.236 1.053-0.39l147.842-66.385 147.847 66.384c0.143 0.063 0.289 0.111 0.437 0.167 0.144 0.057 0.285 0.118 0.433 0.166 0.191 0.063 0.387 0.111 0.582 0.162 0.122 0.033 0.239 0.072 0.36 0.097 0.236 0.051 0.474 0.085 0.713 0.117 0.085 0.010 0.168 0.032 0.255 0.040 0.326 0.035 0.651 0.054 0.976 0.054h0.001c0.001 0 0.003 0 0.003 0 0.446 0 0.891-0.046 1.335-0.111 0.102-0.015 0.204-0.031 0.308-0.049 0.438-0.080 0.872-0.182 1.302-0.329 0.027-0.009 0.054-0.022 0.081-0.033 0.282-0.098 0.566-0.207 0.841-0.338 0.081-0.037 0.151-0.091 0.229-0.132 0.23-0.115 0.452-0.249 0.673-0.386s0.442-0.271 0.651-0.426c0.072-0.054 0.152-0.091 0.225-0.147 0.162-0.125 0.302-0.27 0.451-0.408 0.122-0.11 0.246-0.212 0.361-0.324 0.279-0.274 0.531-0.568 0.767-0.87 0.045-0.058 0.097-0.108 0.139-0.165 0.273-0.372 0.516-0.76 0.728-1.165 0.058-0.113 0.105-0.234 0.162-0.351 0.141-0.297 0.271-0.597 0.382-0.909 0.055-0.156 0.098-0.315 0.145-0.477 0.084-0.285 0.152-0.574 0.207-0.87 0.033-0.168 0.060-0.337 0.084-0.509 0.040-0.31 0.058-0.627 0.067-0.943 0.005-0.151 0.017-0.298 0.012-0.452-0.007-0.465-0.046-0.938-0.133-1.409zM535.054 336.399l-9.4 2.199-0.601-7.766 10.001 5.567zM515.050 439.173l-38.295-29.899c-2.649-2.069-6.219-2.522-9.303-1.182l-74.241 32.313v-10.049c5.547-4.519 18.151-15.169 33.256-30.459l82.726-36.342 5.856 75.618zM506.521 329.061l1.171 15.12-51.679 22.705c5.131-6.361 9.915-12.687 14.357-18.979l36.153-18.845zM261.489 329.061l38.010 19.814c5.629 7.915 11.794 15.889 18.514 23.913 5.876 7.017 11.73 13.534 17.365 19.503l-77.922-11.151 4.035-52.080zM234.901 434.853l-116.191 61.419 5.803-32.009 112.709-59.401-2.322 29.991zM238.897 383.25l-110.225 58.092 9.459-52.155 104.825-58.354-4.060 52.418zM242.044 580.126l8.681-112.096 108.315 164.63-116.998-52.532zM374.834 544.786l-56.486-89.021 56.486 6.764v82.258zM374.834 444.054l-73.49-8.798c-3.512-0.413-6.96 1.221-8.849 4.218-1.888 2.996-1.881 6.809 0.017 9.803l82.321 129.74v44.286l-121.798-185.122 3-38.715 101.17 14.476c7.63 7.082 13.815 12.339 17.629 15.479v14.634zM384.592 413.65c-23.156-19.529-109.93-98.216-109.93-180.475-0.001-60.617 49.314-109.931 109.93-109.931s109.931 49.314 109.931 109.931c0 82.256-86.776 160.945-109.931 180.475zM393.174 639.751v-40.702l27.414 28.393-27.414 12.309zM438.369 619.457l-45.195-46.812v-112.227l76.593-33.336 47.197 36.853 8.999 116.191-87.593 39.332zM527.084 357.094l31.793-7.435 35.022 19.497-64.763 14.452-2.052-26.514zM544.327 579.713l-7.159-92.429 117.797 142.107-110.638-49.68zM534.714 455.588l-2.492-32.176-0.105-1.364 131.402 152.633 8.426 46.457-137.23-165.55z"></path>
<path d="M384.592 176.506c-5.064 0-9.169 4.104-9.169 9.169s4.105 9.169 9.169 9.169c21.137 0 38.334 17.197 38.334 38.334 0 21.135-17.197 38.334-38.334 38.334s-38.334-17.197-38.334-38.334c0-10.112 3.903-19.653 10.989-26.865 3.55-3.612 3.5-9.417-0.114-12.966-3.613-3.55-9.418-3.5-12.968 0.114-10.476 10.664-16.245 24.77-16.245 39.717 0 31.248 25.423 56.673 56.673 56.673s56.673-25.425 56.673-56.673c-0.001-31.249-25.425-56.673-56.675-56.673z"></path>
</svg>
