<!-- Generated by IcoMoon.io -->
<svg version="1.1"
    xmlns="http://www.w3.org/2000/svg" width="768" height="768" viewBox="0 0 768 768">
    <path fill="#748a9d" d="M384 63.985c177.959 0 320.015 142.056 320.015 320.015s-142.056 320.015-320.015 320.015-320.015-142.056-320.015-320.015 143.617-318.454 320.015-320.015zM485.47 471.419l-88.979-88.979 88.979-88.979c4.682-4.682 4.685-10.927 0-15.611s-10.928-4.684-15.611 0l-88.979 88.979-87.419-87.419c-4.682-4.682-10.928-4.684-15.611 0s-4.684 10.927 0 15.611l88.979 88.979-88.979 88.979c-4.682 4.682-4.684 10.928 0 15.611 1.561 1.561 4.682 1.561 9.366 3.123 3.121 0 6.242 0 9.366-3.123l88.979-88.979 88.979 88.979c1.561 1.561 4.682 1.561 9.366 3.123 3.122 0 6.242 0 9.365-3.122-3.122-6.243-3.123-12.488-7.806-17.171l0.006-0.002z"></path>
</svg>
