<!-- Generated by IcoMoon.io -->
<svg version="1.1"
    xmlns="http://www.w3.org/2000/svg" width="768" height="768" viewBox="0 0 768 768">
    <title></title>
    <path d="M352.002 352.002h63.995v192.010h-63.995v-192.010z"></path>
    <path d="M384 63.999c-176.731 0-320.001 143.27-320.001 320.001s143.27 320.001 320.001 320.001c176.732 0 320.001-143.269 320.001-320.001v0c0-0.022 0-0.053 0-0.081 0-176.687-143.233-319.92-319.92-319.92-0.028 0-0.055 0-0.083 0h0.004zM384 640.006c-141.388 0-256.006-114.618-256.006-256.006s114.618-256.006 256.006-256.006c141.388 0 256.006 114.618 256.006 256.006v0c-0.198 141.308-114.697 255.807-255.986 256.006h-0.019z"></path>
    <path d="M352.002 224.014h63.995v63.995h-63.995v-63.995z"></path>
</svg>
