<!-- Generated by IcoMoon.io -->
<svg version="1.1" xmlns="http://www.w3.org/2000/svg" width="768" height="768" viewBox="0 0 768 768">
<title></title>
<g id="icomoon-ignore">
</g>
<path d="M356.578 454.208c-26.515-0.011-48.003-21.509-48.003-48.026 0-26.522 21.502-48.026 48.025-48.026s48.026 21.503 48.026 48.026c0 0.007 0 0.015 0 0.022v-0.001c-0.022 26.518-21.526 48.003-48.044 48.003 0 0 0 0 0 0v0zM356.578 376.216c-16.542 0.011-29.948 13.424-29.948 29.969 0 16.552 13.418 29.969 29.969 29.969 16.543 0 29.955-13.406 29.969-29.946v-0.001c-0.022-16.554-13.435-29.967-29.986-29.989h-0.003z"></path>
<path d="M356.578 528.162c-67.358-0.011-121.957-54.618-121.957-121.979 0-67.367 54.613-121.979 121.979-121.979s121.978 54.613 121.978 121.979c0 0.007 0 0.015 0 0.022v-0.001c-0.071 67.342-54.656 121.908-121.993 121.957h-0.006zM356.578 302.262c-57.385 0.011-103.902 46.534-103.902 103.921 0 57.394 46.528 103.921 103.921 103.921 57.387 0 103.91-46.517 103.921-103.901v-0.001c-0.036-57.393-46.55-103.906-103.939-103.943h-0.004z"></path>
<path d="M356.578 606.697c-110.732-0.011-200.491-89.779-200.491-200.513 0-110.74 89.773-200.513 200.513-200.513s200.513 89.773 200.513 200.513c0 0.007 0 0.015 0 0.022v-0.001c-0.131 110.69-89.839 200.386-200.523 200.491h-0.009zM356.578 223.729c-100.758 0.011-182.435 81.697-182.435 182.458 0 100.769 81.689 182.458 182.458 182.458 100.76 0 182.444-81.677 182.458-182.434v-0.001c-0.107-100.738-81.74-182.372-182.468-182.476h-0.009z"></path>
<path d="M356.578 688.087c-155.646-0.011-281.818-126.19-281.818-281.837 0-155.655 126.184-281.837 281.837-281.837s281.837 126.184 281.837 281.837c0 0.007 0 0.014 0 0.022v-0.001c-0.202 155.576-126.28 281.638-281.842 281.818h-0.017zM356.578 142.445c-145.683 0-263.781 118.1-263.781 263.781s118.1 263.781 263.781 263.781c145.675 0 263.77-118.087 263.781-263.762v-0.001c-0.164-145.621-118.162-263.624-263.763-263.803h-0.018z"></path>
<path d="M684.169 152.816h-54.73c-4.985 0-9.029-4.041-9.029-9.029s4.041-9.029 9.029-9.029v0h54.771c4.985 0 9.029 4.041 9.029 9.029s-4.041 9.029-9.029 9.029v0z"></path>
<path d="M629.439 152.775c-4.993 0-9.039-4.046-9.039-9.039v0-54.771c0-4.996 4.052-9.048 9.048-9.048s9.048 4.052 9.048 9.048v0 54.771c0 0 0 0 0 0 0 4.993-4.046 9.039-9.039 9.039-0.007 0-0.015 0-0.022 0h0.001z"></path>
<path d="M356.578 415.203c-4.979-0.004-9.014-4.040-9.014-9.017 0-2.551 1.060-4.853 2.761-6.494l0.004-0.004 272.82-262.409c1.658-1.793 4.021-2.913 6.646-2.913 4.993 0 9.039 4.046 9.039 9.039 0 2.756-1.233 5.222-3.175 6.877l-0.012 0.010-272.82 262.409c-1.595 1.547-3.771 2.5-6.173 2.5-0.025 0-0.052 0-0.079-0.001h0.005z"></path>
</svg>
