<!-- Generated by IcoMoon.io -->
<svg version="1.1" xmlns="http://www.w3.org/2000/svg" width="32" height="32" viewBox="0 0 32 32">
<title>iuffi-home</title>
<path d="M28.614 14.268v0l-10.879-10.879c-0.444-0.445-1.058-0.721-1.736-0.721s-1.292 0.276-1.736 0.721l-10.883 10.882c-0.444 0.444-0.719 1.057-0.719 1.734 0 1.319 1.042 2.395 2.348 2.448l0.005 0q0.038 0 0.076 0h0.433v8.005c0.002 1.586 1.288 2.871 2.874 2.873h4.255c0.431 0 0.78-0.349 0.78-0.78v0-6.279c0.001-0.724 0.587-1.31 1.311-1.311h2.517c0.721 0.004 1.305 0.589 1.305 1.311v6.276c0 0.431 0.349 0.78 0.78 0.78v0h4.256c1.586-0.001 2.872-1.286 2.874-2.872v-7.999h0.402c0.004 0 0.008 0 0.012 0 1.353 0 2.45-1.097 2.45-2.45 0-0.68-0.277-1.296-0.725-1.74l-0-0z"></path>
</svg>
