<!-- Generated by IcoMoon.io -->
<svg version="1.1" xmlns="http://www.w3.org/2000/svg" width="768" height="768" viewBox="0 0 768 768">
<title></title>
<g id="icomoon-ignore">
</g>
<path d="M639.998 260.076v-7.936l-57.6-69.13-91.733-34.401-91.732 34.401-57.6 69.13v67.861h-117.334v-42.667h1.366c20.030-0.028 36.245-16.286 36.218-36.317-0.003-2.129-0.193-4.253-0.569-6.352l-12.032-66.218c-3.683-19.688-22.63-32.663-42.319-28.977-14.713 2.752-26.225 14.262-28.977 28.977l-12.032 66.218c-3.533 19.715 9.582 38.562 29.298 42.097 2.095 0.377 4.222 0.566 6.352 0.569h1.366v42.668h-74.666v-75.733c24.817-5.1 42.637-26.932 42.667-52.268v-74.666c0-29.453-23.879-53.332-53.333-53.332s-53.332 23.879-53.332 53.332v74.666c0.028 25.337 17.849 47.168 42.668 52.268v75.733h-42.668v384h639.999v-411.925l-63.999-32.001zM362.664 259.862l49.067-58.868 78.934-29.601 78.934 29.601 49.067 58.868v60.139h-74.666v-63.999h-106.667v63.999h-74.666v-60.14zM522.666 277.334v42.667h-21.334v-42.667h21.334zM479.998 277.334v42.667h-21.334v-42.667h21.334zM201.299 256c-8.248-0.037-14.903-6.752-14.867-15 0.005-0.858 0.083-1.714 0.233-2.558l12.032-66.208c1.583-8.093 9.427-13.373 17.522-11.792 5.962 1.165 10.627 5.828 11.792 11.792l11.989 66.208c1.448 8.12-3.957 15.877-12.078 17.326-0.844 0.151-1.701 0.229-2.558 0.232h-1.366v-21.334h-21.334v21.334h-1.366zM85.331 192.001v-74.666c0-17.674 14.327-32.001 32.001-32.001s32.001 14.327 32.001 32.001v74.666c-0.056 13.511-8.593 25.534-21.334 30.038v-40.703h-21.334v40.703c-12.741-4.505-21.278-16.525-21.334-30.038zM85.331 341.332h144.918l-144.918 144.918v-144.918zM85.331 516.416l175.083-175.083h8.011l-183.094 283.787v-108.704zM85.331 682.668v-18.198l208.479-323.138h10.667l-130.486 341.332h-88.66zM196.83 682.668l130.507-341.332h11.947l-60.233 341.332h-82.219zM373.331 682.668h-72.62l60.233-341.332h12.382v341.332zM394.665 682.668v-341.332h12.382l60.233 341.332h-72.62zM488.947 682.668l-60.233-341.332h11.947l130.508 341.332h-82.22zM682.665 682.668h-88.66l-130.507-341.332h10.667l208.501 323.138v18.198zM682.665 625.12l-183.094-283.787h8.011l175.083 175.083v108.703zM682.665 486.25l-144.918-144.918h144.918v144.918zM682.665 320.002h-42.667v-36.074l42.667 21.334v14.74z"></path>
<path d="M479.998 202.668h21.334v21.334h-21.334v-21.334z"></path>
<path d="M335.998 64c-26.51 0-48 21.49-48 48s21.49 48 48 48 48-21.49 48-48-21.49-48-48-48zM335.998 138.667c-14.728 0-26.666-11.939-26.666-26.666s11.938-26.666 26.666-26.666 26.666 11.939 26.666 26.666-11.938 26.666-26.666 26.666z"></path>
</svg>
