<!-- Generated by IcoMoon.io -->
<svg version="1.1" xmlns="http://www.w3.org/2000/svg" width="768" height="768" viewBox="0 0 768 768">
<title></title>
<g id="icomoon-ignore">
</g>
<path d="M438.997 348.479c14.065 14.064 22.766 33.493 22.766 54.956 0 42.922-34.793 77.716-77.716 77.716s-77.716-34.793-77.716-77.716c0-21.463 8.701-40.892 22.765-54.956v0c14.063-14.062 33.49-22.76 54.95-22.76s40.886 8.698 54.95 22.76v0z"></path>
<path d="M617.167 189.715h-53.695l-38.881-77.716h-281.161l-38.835 77.756h-53.63c-42.841 0.16-77.514 34.904-77.564 77.754v0.007l-0.217 310.75c0.037 42.91 34.805 77.687 77.709 77.735h466.269c42.872-0.085 77.602-34.838 77.65-77.709v-310.864c-0.049-42.878-34.776-77.629-77.641-77.716h-0.007zM384.025 558.86c-85.84 0-155.429-69.587-155.429-155.429s69.587-155.429 155.429-155.429c85.84 0 155.429 69.587 155.429 155.429v0c-0.097 85.802-69.628 155.329-155.418 155.429h-0.007z"></path>
</svg>
