<!-- Generated by IcoMoon.io -->
<svg version="1.1"
    xmlns="http://www.w3.org/2000/svg" width="768" height="768" viewBox="0 0 768 768">
    <title></title>
    <path d="M383.999 430.901c-0.007 0-0.014 0-0.022 0-25.901 0-46.901-20.997-46.901-46.901s20.997-46.901 46.901-46.901c25.901 0 46.901 20.997 46.901 46.901v0c-0.024 25.885-20.994 46.862-46.874 46.901h-0.004zM383.999 354.711c-0.013 0-0.029 0-0.044 0-16.176 0-29.289 13.113-29.289 29.289s13.113 29.289 29.289 29.289c16.176 0 29.289-13.113 29.289-29.289v0c-0.012-16.154-13.092-29.25-29.241-29.289h-0.005z"></path>
    <path d="M383.999 503.094c-65.822 0-119.182-53.36-119.182-119.182s53.36-119.182 119.182-119.182c65.822 0 119.182 53.36 119.182 119.182v0c0 65.822-53.36 119.182-119.182 119.182v0zM383.999 282.519c-56.070 0-101.525 45.454-101.525 101.525s45.454 101.525 101.525 101.525c56.070 0 101.525-45.454 101.525-101.525v0c0-0.007 0-0.014 0-0.022 0-56.070-45.454-101.525-101.525-101.525v0z"></path>
    <path d="M383.999 659.157c-151.965 0-275.157-123.192-275.157-275.157s123.192-275.157 275.157-275.157c151.965 0 275.157 123.192 275.157 275.157v0c-0.188 151.889-123.268 274.967-275.139 275.157h-0.019zM383.999 126.478c-142.226 0-257.522 115.296-257.522 257.522s115.296 257.522 257.522 257.522c142.226 0 257.522-115.296 257.522-257.522v0c-0.226-142.116-115.397-257.258-257.504-257.433h-0.017z"></path>
    <path d="M384.022 704.027c-4.876 0-8.828-3.952-8.828-8.828v0-236.157c0-4.876 3.952-8.828 8.828-8.828s8.828 3.952 8.828 8.828v236.157c0 4.876-3.952 8.828-8.828 8.828v0z"></path>
    <path d="M384.022 319.421c-4.876 0-8.828-3.952-8.828-8.828v0-237.792c0-4.876 3.952-8.828 8.828-8.828s8.828 3.952 8.828 8.828v0 237.792c0 4.876-3.952 8.828-8.828 8.828v0z"></path>
    <path d="M309.181 392.828h-236.467c-4.876 0-8.828-3.952-8.828-8.828s3.952-8.828 8.828-8.828h236.379c4.876 0 8.828 3.952 8.828 8.828s-3.952 8.828-8.828 8.828v0z"></path>
    <path d="M695.197 392.828h-237.613c-4.876 0-8.828-3.952-8.828-8.828s3.952-8.828 8.828-8.828h237.702c4.876 0 8.828 3.952 8.828 8.828s-3.953 8.828-8.828 8.828v0z"></path>
</svg>
