<!-- Generated by IcoMoon.io -->
<svg version="1.1" xmlns="http://www.w3.org/2000/svg" width="32" height="32" viewBox="0 0 32 32">
<title>iuffi-calendar</title>
<path d="M19.303 13.465h-1.664c-0.398 0-0.72 0.322-0.72 0.72v0 1.664c0 0.398 0.322 0.72 0.72 0.72h1.664c0.398 0 0.72-0.322 0.72-0.72v0-1.664c0-0.001 0-0.001 0-0.002 0-0.396-0.321-0.718-0.718-0.718-0.001 0-0.001 0-0.002 0h0z"></path>
<path d="M24.248 13.465h-1.664c-0.398 0-0.72 0.322-0.72 0.72v0 1.664c0 0.398 0.322 0.72 0.72 0.72v0h1.664c0.398 0 0.72-0.322 0.72-0.72v0-1.664c0-0.001 0-0.001 0-0.002 0-0.396-0.321-0.718-0.718-0.718-0.001 0-0.001 0-0.002 0h0z"></path>
<path d="M9.461 22.984h-1.667c-0.398 0-0.72 0.322-0.72 0.72v0 1.664c0 0.398 0.322 0.72 0.72 0.72h1.664c0.398 0 0.72-0.322 0.72-0.72v0-1.664c0-0.001 0-0.003 0-0.004 0-0.395-0.32-0.716-0.716-0.716-0 0-0.001 0-0.001 0h0z"></path>
<path d="M14.406 22.984h-1.664c-0.398 0-0.72 0.322-0.72 0.72v0 1.664c0 0.398 0.322 0.72 0.72 0.72h1.664c0.398 0 0.72-0.322 0.72-0.72v0-1.664c0-0.398-0.322-0.72-0.72-0.72v0z"></path>
<path d="M7.747 21.321h1.664c0.398 0 0.72-0.322 0.72-0.72v0-1.664c0-0.398-0.322-0.72-0.72-0.72h-1.664c-0.398 0-0.72 0.322-0.72 0.72v0 1.664c0 0.398 0.322 0.72 0.72 0.72v0z"></path>
<path d="M12.693 21.321h1.664c0.398 0 0.72-0.322 0.72-0.72v0-1.664c0-0.398-0.322-0.72-0.72-0.72h-1.664c-0.398 0-0.72 0.322-0.72 0.72v0 1.664c0 0.398 0.322 0.72 0.72 0.72v0z"></path>
<path d="M19.303 18.215h-1.664c-0.398 0-0.72 0.322-0.72 0.72v0 1.664c0 0.398 0.322 0.72 0.72 0.72h1.664c0.398 0 0.72-0.322 0.72-0.72v0-1.664c0-0.398-0.322-0.72-0.72-0.72v0z"></path>
<path d="M24.248 18.215h-1.664c-0.398 0-0.72 0.322-0.72 0.72v0 1.664c0 0.398 0.322 0.72 0.72 0.72v0h1.664c0.398 0 0.72-0.322 0.72-0.72v0-1.664c0-0.398-0.322-0.72-0.72-0.72v0z"></path>
<path d="M3.559 29.333h24.882c0.398 0 0.72-0.322 0.72-0.72v0-23.062c0-0.398-0.322-0.72-0.72-0.72v0h-2.557v2.507c-0.001 0.874-0.71 1.583-1.584 1.584h-1.761c-0.874-0.001-1.583-0.71-1.584-1.584v-2.507h-2.493v2.507c-0.001 0.874-0.71 1.583-1.584 1.584h-1.761c-0.874-0.001-1.583-0.71-1.584-1.584v-2.507h-2.493v2.507c-0.001 0.874-0.71 1.583-1.584 1.584h-1.761c-0.874-0.001-1.583-0.71-1.584-1.584v-2.507h-2.553c-0.398 0-0.72 0.322-0.72 0.72v0 23.062c0 0.398 0.322 0.72 0.72 0.72v0zM4.69 12.115h22.616v15.367h-22.616z"></path>
<path d="M7.698 2.667c-0.398 0-0.72 0.322-0.72 0.72v0 3.954c0 0.398 0.322 0.72 0.72 0.72v0h1.762c0.398 0 0.72-0.322 0.72-0.72v0-3.954c0-0.398-0.322-0.72-0.72-0.72v0z"></path>
<path d="M15.117 2.667c-0.398 0-0.72 0.322-0.72 0.72v0 3.954c0 0.398 0.322 0.72 0.72 0.72h1.762c0.398 0 0.72-0.322 0.72-0.72v0-3.954c0-0.398-0.322-0.72-0.72-0.72v0z"></path>
<path d="M24.298 2.667h-1.762c-0.398 0-0.72 0.322-0.72 0.72v0 3.954c0 0.398 0.322 0.72 0.72 0.72v0h1.762c0.398 0 0.72-0.322 0.72-0.72v0-3.954c0-0.398-0.322-0.72-0.72-0.72v0z"></path>
</svg>
