<!-- Generated by IcoMoon.io -->
<svg version="1.1" xmlns="http://www.w3.org/2000/svg" width="768" height="768" viewBox="0 0 768 768">
<title></title>
<g id="icomoon-ignore">
</g>
<path d="M490.666 615.113c-89.066 0-166.401-50.488-204.979-124.446h204.979v-71.111h-228.088c-1.777-11.556-3.022-23.467-3.022-35.556s1.245-24 3.022-35.556h228.088v-71.111h-204.979c38.578-73.956 115.733-124.446 204.979-124.446 57.422 0 109.868 20.978 150.221 55.644l63.112-62.754c-56.533-50.666-131.377-81.778-213.334-81.778-139.2 0-257.423 89.066-301.333 213.334h-125.333v71.111h108.801c-1.421 11.734-2.134 23.468-2.134 35.556s0.712 23.822 2.134 35.556h-108.801v71.111h125.333c43.912 124.268 162.133 213.334 301.333 213.334 81.954 0 156.801-31.112 213.334-81.778l-63.112-62.933c-40.356 34.667-92.799 55.822-150.221 55.822z"></path>
</svg>
