<!-- Generated by IcoMoon.io -->
<svg version="1.1" xmlns="http://www.w3.org/2000/svg" width="768" height="768" viewBox="0 0 768 768">
<title></title>
<g id="icomoon-ignore">
</g>
<path d="M571.885 599.824h-0.217c-187.699-3.497-187.743-3.497-375.457 0-0.112 0.005-0.241 0.007-0.37 0.007-3.233 0-6.157-1.324-8.261-3.457l-0.001-0.002c-2.070-2.080-3.351-4.95-3.351-8.119 0-0.182 0.005-0.362 0.012-0.541l-0.001 0.025c2.677-66.036 45.559-136.285 87.777-184.347l-41.257 0.776c-3.349-0.058-6.377-1.378-8.641-3.502l0.007 0.007c-2.070-2.080-3.351-4.95-3.351-8.119 0-0.181 0.005-0.362 0.012-0.541l-0.001 0.025c2.115-52.293 35.687-110.629 73.027-152.719l-23.297 0.431c-4.912-0.072-9.128-2.963-11.12-7.118l-0.033-0.076c-10.748-25.901 6.36-59.761 22.606-83.461 28.045-41.097 76.495-85.085 103.967-85.085s75.876 43.988 103.924 85.085c16.275 23.757 33.355 57.56 22.649 83.461-2.023 4.235-6.242 7.122-11.142 7.194h-0.008l-25.096-0.474c41.168 45.846 76.798 107.78 74.825 153.754-0.548 6.222-5.717 11.071-12.025 11.107h-0.005l-5.655-0.128-37.788-0.691c48.005 53.846 92.51 128.557 90.050 185.341-0.315 6.232-5.446 11.168-11.728 11.168-0.021 0-0.039 0-0.061 0h0.004zM383.913 573.923c44.982 0 89.921 0.819 175.942 2.418-4.316-54.234-52.969-128.343-102.168-176.908-2.123-2.090-3.439-4.994-3.439-8.207 0-1.643 0.343-3.202 0.964-4.617l-0.029 0.073c1.941-4.192 6.112-7.051 10.951-7.051 0.036 0 0.069 0 0.106 0.001h-0.007c16.852 0.26 36.075 0.605 58.896 1.036-4.836-45.328-46.695-106.816-87.115-145.149-2.222-2.104-3.605-5.074-3.605-8.365 0-1.597 0.325-3.119 0.913-4.501l-0.029 0.075c1.853-4.262 6.022-7.19 10.879-7.194h0.217l43.846 0.819c-1.942-20.837-9.883-39.517-22.056-54.649l0.155 0.198c-29.138-42.652-71.271-74.825-84.395-74.825s-55.256 32.147-84.395 74.825c-12.055 14.957-19.988 33.697-21.817 54.192l-0.028 0.387 42.175-0.776c0.019 0 0.040 0 0.063 0 4.856 0 9.028 2.931 10.844 7.118l0.029 0.076c0.561 1.309 0.886 2.829 0.886 4.429 0 3.314-1.402 6.302-3.641 8.402l-0.008 0.007c-36.737 34.665-76.985 93.158-84.483 145.063l55.776-1.036c0.007 0 0.018 0 0.027 0 4.87 0 9.070 2.867 11.006 7.005l0.031 0.074c0.593 1.336 0.938 2.894 0.938 4.534 0 3.202-1.317 6.098-3.44 8.171l-0.002 0.002c-44.939 44.421-91.246 114.729-99.045 176.908 85.445-1.67 130.256-2.475 175.067-2.475z"></path>
<path d="M437.314 703.993h-106.655c-7.087 0-12.835-5.747-12.835-12.835v0-106.685c0.023-7.072 5.762-12.792 12.835-12.792 0 0 0 0 0 0h106.655c0 0 0 0 0 0 7.072 0 12.812 5.722 12.835 12.789v106.644c0 0.013 0 0.028 0 0.043 0 7.087-5.747 12.835-12.835 12.835 0 0 0 0 0 0v0zM343.493 678.363h81.029v-81.029h-81.029z"></path>
</svg>
