<!-- Generated by IcoMoon.io -->
<svg version="1.1"
    xmlns="http://www.w3.org/2000/svg" width="768" height="768" viewBox="0 0 768 768">
    <title></title>
    <path d="M237.919 309.284c-48.234-0.051-87.324-39.128-87.392-87.352v-70.57c0-48.256 39.118-87.374 87.374-87.374s87.374 39.118 87.374 87.374v0 70.561c-0.068 48.219-39.14 87.288-87.352 87.356h-0.007zM237.919 80.98c-38.861 0.030-70.357 31.524-70.387 70.384v70.565c0 38.874 31.513 70.387 70.387 70.387s70.388-31.513 70.388-70.387v-70.561c-0.051-38.854-31.534-70.337-70.381-70.387h-0.006z"></path>
    <path d="M335.163 531.396h-198.615c-34.257-0.039-62.020-27.802-62.059-62.054v-72.875c1.949-17.558 11.763-32.482 25.787-41.348l0.231-0.136c14.168-11.017 30.882-19.55 49.050-24.589l1.007-0.238 61.585-17.27c0.686-0.202 1.478-0.317 2.291-0.317 4.677 0 8.468 3.791 8.468 8.468 0 3.863-2.585 7.118-6.117 8.137l-0.060 0.015-61.585 17.288c-16.909 4.635-31.651 12.155-44.425 22.083l0.284-0.213c-8.905 6.998-19.561 17.497-19.561 28.133v72.871c0.030 24.89 20.198 45.056 45.084 45.086h198.617c4.688 0 8.485 3.8 8.485 8.485s-3.8 8.485-8.485 8.485v0z"></path>
    <path d="M299.419 341.39c-0.813-0.002-1.596-0.128-2.329-0.366l-40.345-11.304c-3.781-0.908-6.548-4.263-6.548-8.261 0-4.688 3.8-8.485 8.485-8.485 0.946 0 1.855 0.156 2.707 0.442l-0.060-0.018 40.399 11.319c3.638 1.012 6.261 4.294 6.261 8.188 0 4.688-3.8 8.485-8.485 8.485-0.029 0-0.059 0-0.089-0.001h0.005z"></path>
    <path d="M214.423 329.543c0 0 0 0 0 0-4.676 0-8.468-3.79-8.468-8.468 0-0.012 0-0.023 0-0.037v0.002-20.226c0-4.688 3.8-8.485 8.485-8.485s8.485 3.8 8.485 8.485v20.226c0 4.697-3.806 8.503-8.503 8.503v0z"></path>
    <path d="M259.072 330.050c-4.696 0-8.503-3.806-8.503-8.503v0-20.751c0-4.688 3.8-8.485 8.485-8.485s8.485 3.8 8.485 8.485v20.751c0 0 0 0 0 0 0 4.684-3.788 8.483-8.468 8.503h-0.002z"></path>
    <path d="M235.837 411.758c-30.199 0-54.779-32.211-54.779-71.734 0-0.049 0-0.107 0-0.165 0-4.657 0.331-9.235 0.969-13.717l-0.060 0.514c0.677-4.076 4.178-7.147 8.393-7.147 4.696 0 8.503 3.806 8.503 8.503 0 0.373-0.022 0.742-0.070 1.102l0.005-0.042c-0.502 3.292-0.787 7.087-0.787 10.952v0.001c0 30.233 16.972 54.85 37.809 54.85s37.809-24.617 37.809-54.85c0-0.041 0-0.091 0-0.14 0-3.815-0.274-7.565-0.803-11.231l0.050 0.418c-0.067-0.404-0.108-0.871-0.108-1.345 0-4.688 3.8-8.485 8.485-8.485 4.31 0 7.868 3.214 8.413 7.373l0.005 0.043c0.593 4.010 0.937 8.645 0.945 13.358v0.009c0.036 39.541-24.581 71.734-54.779 71.734z"></path>
    <path d="M266.718 160.796c-0.070 0.001-0.156 0.001-0.239 0.001-8.261 0-16.087-1.871-23.074-5.213l0.322 0.139c-7.614-3.827-14.053-8.886-19.318-14.984l-0.067-0.080c-3.373-4.496-8.012-7.88-13.385-9.637l-0.193-0.053c-11.67-2.678-27.416 6.23-45.489 25.735-1.565 1.802-3.859 2.933-6.416 2.933-4.688 0-8.485-3.8-8.485-8.485 0-2.333 0.94-4.445 2.464-5.977l-0.001 0.001c22.745-24.494 43.461-34.886 61.69-30.774 8.975 2.528 16.529 7.642 22.033 14.473l0.065 0.083c3.877 4.639 8.587 8.438 13.921 11.201l0.25 0.118c10.341 4.76 26.558 7.786 60.325-11.496 1.192-0.674 2.616-1.072 4.132-1.072 4.696 0 8.503 3.806 8.503 8.503 0 3.112-1.671 5.831-4.163 7.313l-0.038 0.023c-14.969 9.825-33.067 16.102-52.544 17.238l-0.292 0.013z"></path>
    <path d="M400.089 526.532c-64.027-0.064-115.904-51.982-115.904-116.016 0-64.075 51.941-116.016 116.016-116.016s116.016 51.941 116.016 116.016c0 32.064-13.009 61.090-34.034 82.090l-0.001 0.001c-20.933 20.96-49.868 33.924-81.828 33.924-0.093 0-0.186 0-0.277-0.001h0.014zM400.089 311.452c-54.675 0.047-98.981 44.38-98.981 99.062 0 54.711 44.351 99.062 99.062 99.062s99.062-44.351 99.062-99.062c0-27.376-11.105-52.158-29.055-70.089l-0.001-0.001c-17.883-17.902-42.596-28.973-69.897-28.973-0.068 0-0.134 0-0.202 0h0.010z"></path>
    <path d="M462.48 418.984c-0.006 0-0.011 0-0.018 0-4.667 0-8.452-3.784-8.452-8.452 0-0.007 0-0.012 0-0.019v0.001c-0.039-29.77-24.169-53.892-53.936-53.922h-0.004c-4.688 0-8.485-3.8-8.485-8.485s3.8-8.485 8.485-8.485v0c39.142 0.030 70.865 31.751 70.894 70.891v0.003c0 0 0 0 0 0 0 4.676-3.791 8.467-8.467 8.467-0.007 0-0.012 0-0.019 0h0.001z"></path>
    <path d="M509.93 528.877c-0.010 0-0.022 0-0.036 0-2.327 0-4.433-0.951-5.947-2.482l-33.804-33.804c-1.537-1.537-2.485-3.657-2.485-6.001 0-4.688 3.8-8.486 8.486-8.486 2.344 0 4.464 0.951 6.001 2.485l33.803 33.803c1.538 1.537 2.486 3.657 2.486 6.002 0 4.688-3.8 8.485-8.485 8.485-0.008 0-0.014 0-0.022 0h0.001z"></path>
    <path d="M653.101 704.012c-0.011 0-0.025 0-0.040 0-6.577 0-12.527-2.677-16.823-6.998l-140.617-140.617c-4.31-4.319-6.974-10.283-6.974-16.867s2.663-12.548 6.974-16.868l-0.001 0.001 16.586-16.604c4.319-4.31 10.283-6.974 16.868-6.974s12.547 2.663 16.867 6.974l140.615 140.614c4.3 4.324 6.959 10.283 6.959 16.868s-2.66 12.543-6.961 16.868l0.001-0.001-16.604 16.586c-4.305 4.327-10.264 7.010-16.848 7.015h-0.001zM529.088 516.103c-0.004 0-0.007 0-0.010 0-1.897 0-3.611 0.769-4.853 2.012v0l-16.586 16.585c-1.243 1.238-2.012 2.952-2.012 4.846 0 0.008 0 0.013 0 0.020v-0.001c0 0.011 0 0.025 0 0.039 0 1.886 0.77 3.592 2.012 4.822l140.616 140.616c1.244 1.246 2.963 2.017 4.865 2.017s3.62-0.772 4.864-2.017l16.586-16.585c1.25-1.242 2.023-2.963 2.023-4.865s-0.773-3.623-2.022-4.865l-140.616-140.616c-1.238-1.223-2.933-1.985-4.808-2.012h-0.006z"></path>
</svg>
