<!-- Generated by IcoMoon.io -->
<svg version="1.1" xmlns="http://www.w3.org/2000/svg" width="768" height="768" viewBox="0 0 768 768">
<title></title>
<g id="icomoon-ignore">
</g>
<path d="M658.161 629.88l-415.599-415.599c0 0-0.039-0.039-0.081-0.081l-104.319-104.361c-7.8-7.8-20.481-7.8-28.281 0s-7.8 20.481 0 28.281l91.599 91.599c-14.919 17.64-27.879 36.639-36.999 57.801-10.839 24.639-17.241 50.28-19.44 76.479h-61.041c-11.040 0-20.001 8.961-20.001 20.001s8.961 20.001 20.001 20.001h60.999c9.681 116.4 102.6 209.319 219 219v60.999c0 11.040 8.961 20.001 20.001 20.001s20.001-8.961 20.001-20.001v-61.041c26.241-2.199 51.84-8.601 76.281-19.401 21.279-9.12 40.32-22.119 57.96-37.041l91.599 91.599c3.921 3.921 9.039 5.88 14.16 5.88s10.239-1.959 14.16-5.841c7.8-7.8 7.8-20.481 0-28.281zM464.319 566.88c-25.68 11.361-52.719 17.121-80.319 17.121-110.28 0-200.001-89.721-200.001-200.001 0-27.561 5.76-54.6 17.16-80.52 7.161-16.599 17.199-31.521 28.599-45.48l280.239 280.239c-14.001 11.4-28.92 21.441-45.681 28.641z"></path>
<path d="M684 363.999h-60.999c-9.681-116.4-102.6-209.319-219-219v-60.999c0-11.040-8.961-20.001-20.001-20.001s-20.001 8.961-20.001 20.001v61.041c-26.241 2.241-51.879 8.601-76.479 19.479-10.119 4.479-14.679 16.281-10.2 26.361 4.401 10.080 16.281 14.601 26.361 10.2 25.68-11.319 52.719-17.079 80.319-17.079 110.28 0 200.001 89.721 200.001 200.001 0 27.561-5.76 54.6-17.121 80.319-4.44 10.080 0.159 21.921 10.239 26.361 2.64 1.161 5.4 1.68 8.079 1.68 7.641 0 15-4.44 18.321-11.919 10.839-24.6 17.199-50.28 19.44-76.44h61.041c11.040 0 20.001-8.919 20.001-20.001 0-11.001-8.961-20.001-20.001-20.001z"></path>
</svg>
