<!-- Generated by IcoMoon.io -->
<svg version="1.1"
    xmlns="http://www.w3.org/2000/svg" width="768" height="768" viewBox="0 0 768 768">
    <title></title>
    <g id="icomoon-ignore">
    </g>
    <path d="M645.974 122.029c-35.765-35.761-85.168-57.88-139.742-57.88-109.151 0-197.634 88.483-197.634 197.634 0 43.046 13.762 82.877 37.127 115.334l-0.401-0.587-36.927 36.912c-4.765-3.526-10.759-5.644-17.249-5.644-8.030 0-15.304 3.246-20.579 8.494l-189.853 189.875c-10.24 10.355-16.566 24.601-16.566 40.324 0 31.679 25.681 57.36 57.36 57.36 15.722 0 29.968-6.325 40.33-16.572l189.87-189.87c5.247-5.276 8.491-12.549 8.491-20.579 0-6.487-2.117-12.482-5.697-17.326l0.056 0.080 36.912-36.906c31.871 22.962 71.704 36.725 114.748 36.725 109.151 0 197.634-88.483 197.634-197.634 0-54.571-22.118-103.977-57.88-139.742v0zM149.462 674.918c-7.214 7.214-17.179 11.675-28.188 11.675-22.017 0-39.863-17.849-39.863-39.863 0-11.009 4.461-20.974 11.675-28.188l156.837-156.834 56.37 56.396zM339.332 485.048l-20.658 20.658-56.376-56.376 20.658-20.658c2.122-2.117 5.052-3.425 8.286-3.425s6.164 1.309 8.286 3.426v0l39.801 39.801c2.118 2.122 3.426 5.051 3.426 8.286s-1.31 6.165-3.426 8.286v0zM342.507 446.893l-21.399-21.399 35.097-35.097c3.27 3.804 6.645 7.545 10.248 11.148s7.344 6.999 11.148 10.248zM633.599 389.173c-32.601 32.6-77.635 52.761-127.38 52.761-99.491 0-180.147-80.655-180.147-180.147s80.655-180.147 180.147-180.147c99.491 0 180.147 80.655 180.147 180.146v0c-0.023 49.742-20.183 94.773-52.768 127.388l0.001-0.001z"></path>
    <path d="M580.784 254.915c2.418-0.001 4.606-0.982 6.189-2.565l23.328-23.328c1.649-1.594 2.673-3.824 2.673-6.294 0-4.833-3.918-8.749-8.749-8.749-2.468 0-4.7 1.023-6.289 2.667l-20.775 20.772h-7.635c-3.333-10.122-11.848-17.655-22.324-19.529l-0.173-0.025v-12.528c-0.033-10.24-6.552-18.95-15.663-22.237l-0.165-0.052 4.245-8.31c0.721-1.244 1.147-2.736 1.147-4.329 0-4.833-3.918-8.749-8.749-8.749-3.516 0-6.548 2.075-7.939 5.066l-0.023 0.052-7.564 14.808h-12.198l-7.564-14.808c-1.48-2.855-4.413-4.77-7.791-4.77-4.833 0-8.749 3.918-8.749 8.749 0 1.452 0.353 2.823 0.982 4.028l-0.023-0.049 4.245 8.31c-9.274 3.339-15.795 12.047-15.828 22.285v12.533c-10.651 1.9-19.164 9.434-22.439 19.349l-0.058 0.202h-7.614l-20.769-20.788c-1.582-1.582-3.771-2.563-6.186-2.563-4.833 0-8.749 3.918-8.749 8.749 0 2.416 0.98 4.603 2.563 6.186v0l23.334 23.328c1.582 1.582 3.77 2.563 6.185 2.565h9.888v16.998h-33.222c-4.833 0-8.749 3.918-8.749 8.749s3.918 8.749 8.749 8.749v0h33.222v7.5c0.022 5.71 0.787 11.233 2.197 16.488l-0.103-0.45h-12c-2.416 0.002-4.602 0.982-6.185 2.565l-23.334 23.328c-1.582 1.583-2.563 3.771-2.563 6.186 0 4.833 3.918 8.749 8.749 8.749 2.416 0 4.603-0.98 6.186-2.563v0l20.769-20.769h15.744c11.495 18.792 31.907 31.141 55.2 31.141s43.705-12.349 55.040-30.86l0.16-0.281h15.744l20.773 20.769c1.594 1.647 3.823 2.67 6.291 2.67 4.833 0 8.749-3.918 8.749-8.749 0-2.47-1.024-4.7-2.67-6.291l-23.331-23.331c-1.583-1.583-3.771-2.564-6.189-2.565h-12c1.307-4.805 2.070-10.327 2.094-16.023v-7.515h33.217c4.833 0 8.749-3.918 8.749-8.749s-3.918-8.749-8.749-8.749v0h-33.217v-16.998zM482.882 217.417v-12.084c0.007-3.449 2.8-6.245 6.248-6.249h34.168c3.449 0.007 6.245 2.8 6.249 6.248v12.085zM459.032 296.911v-50.745c0.007-6.211 5.039-11.243 11.249-11.25h27.184v108.312c-22.005-4.289-38.393-23.394-38.433-46.333v-0.005zM514.964 343.246v-108.332h27.189c6.211 0.007 11.243 5.039 11.25 11.249v50.728c-0.037 22.946-16.429 42.050-38.138 46.288l-0.298 0.050z"></path>
</svg>
