<!-- Generated by IcoMoon.io -->
<svg version="1.1" xmlns="http://www.w3.org/2000/svg" width="768" height="768" viewBox="0 0 768 768">
<title></title>
<g id="icomoon-ignore">
</g>
<path d="M634.329 687.999h-549.212c-0.002 0-0.005 0-0.007 0-6.365 0-11.55-5.058-11.755-11.376l-0.001-0.020c-2.044-61.225 86.383-75.788 110.704-78.631 27.494-42.506 54.413-69.959 141.367-67.769 54.52 2.639 103.134 25.943 138.57 62.187l0.036 0.038c21.425-20.293 50.435-32.769 82.357-32.769 10.024 0 19.764 1.232 29.073 3.55l-0.824-0.175c66.132 20.211 71.227 108.925 71.411 112.668 0.005 0.116 0.007 0.251 0.007 0.391 0 6.522-5.254 11.819-11.763 11.884h-0.007zM98.558 664.475h522.556c-3.641-22.174-15.546-67.504-53.288-79.021-51.016-15.627-95.302 31.072-95.773 31.542-2.135 2.332-5.194 3.79-8.595 3.79-0.128 0-0.256-0.003-0.383-0.007l0.019 0.001c-3.536-0.135-6.661-1.786-8.759-4.316l-0.017-0.021c-32.233-36.041-77.826-59.554-128.926-62.71l-0.534-0.026c-79.531-1.86-99.025 22.174-124.042 61.652-1.975 3.052-5.251 5.118-9.020 5.419l-0.041 0.003c-0.878 0.103-80.45 7.303-93.196 43.693z"></path>
<path d="M324.345 554.116h-1.165c-7.896-0.838-12.683-7.466-18.983-26.327-22.502-66.746-34.162-204.227 63.739-296.482 2.127-2.134 5.067-3.455 8.317-3.455 6.485 0 11.741 5.257 11.741 11.741 0 3.496-1.527 6.633-3.95 8.785l-0.011 0.010c-108.742 102.522-63.904 261.217-53.020 283.513h0.143c3.466 2.093 5.746 5.839 5.746 10.119 0 2.221-0.616 4.3-1.685 6.075l0.030-0.052c-2.357 3.612-6.343 5.986-10.89 6.076h-0.013z"></path>
<path d="M303.583 482.195c-1.905-0.011-3.706-0.455-5.308-1.239l0.073 0.033c-3.897-1.993-6.519-5.978-6.519-10.579 0-1.889 0.443-3.677 1.232-5.263l-0.031 0.068c0.695-1.39 72.249-142.065 227.75-109.683 5.579 0.988 9.766 5.801 9.766 11.592 0 6.496-5.265 11.763-11.763 11.763-0.998 0-1.966-0.123-2.891-0.358l0.080 0.018c-137.951-28.636-201.242 95.813-201.857 97.121-1.976 3.894-5.949 6.518-10.534 6.525h-0.002z"></path>
<path d="M300.719 402.788c-0.019 0-0.038 0-0.061 0-2.090 0-4.053-0.554-5.745-1.523l0.056 0.030c-106.369-60.056-107.72-134.883-107.72-137.992 0-0.031-0.001-0.065-0.001-0.103 0-6.439 5.221-11.66 11.66-11.66 0.021 0 0.043 0 0.064 0h-0.004c0.012 0 0.026 0 0.040 0 6.451 0 11.687 5.212 11.72 11.656v0.004c0 2.761 2.23 64.824 95.773 117.598 3.612 2.048 6.011 5.868 6.011 10.249 0 6.484-5.257 11.741-11.741 11.741-0.021 0-0.041 0-0.064 0h0.004z"></path>
<path d="M539.457 466.73c-47.969 0-92.684-22.111-146.583-93.625-1.474-1.944-2.358-4.4-2.358-7.066 0-2.747 0.943-5.276 2.521-7.277l-0.020 0.024c30.818-37.773 76.857-62.121 128.624-63.611l0.247-0.007c59.464 1.636 116.903 41.873 170.722 119.48 1.297 1.878 2.073 4.204 2.073 6.71 0 1.421-0.249 2.786-0.705 4.051l0.026-0.082c-1.318 3.558-4.201 6.262-7.792 7.303l-0.082 0.021c-13.951 3.926-27.063 7.896-39.521 11.66-31.519 11.826-67.998 19.829-105.976 22.357l-1.171 0.064zM417.46 366.498c77.466 99.026 126.618 84.196 222.292 55.229 7.69-2.33 15.627-4.706 23.85-7.099-46.351-62.408-94.217-94.688-142.432-96.14-41.254 1.090-78.032 19.372-103.59 47.914l-0.121 0.136z"></path>
<path d="M225.157 338.906c-0.021 0-0.047 0-0.071 0-1.987 0-3.857-0.5-5.493-1.38l0.063 0.031c-83.255-44.285-115.472-93.442-47.374-226.114 1.986-3.816 5.909-6.377 10.433-6.377 3.143 0 5.999 1.237 8.103 3.254l-0.005-0.005c124.225 117.884 44.469 225.012 43.672 226.012-2.163 2.799-5.522 4.581-9.298 4.581-0.010 0-0.021 0-0.034 0h0.002zM185.945 136.681c-48.623 101.235-28.762 138.646 35.246 174.914 13.399-23.707 41.341-93.707-35.264-174.914z"></path>
<path d="M342.284 318.714c-0.263 0.003-0.577 0.004-0.89 0.004-4.276 0-8.5-0.223-12.661-0.662l0.52 0.044c-7.721-2.966-14.287-7.403-19.639-13.009l-0.021-0.021c-0.614-4.091-13.337-101.275 48.48-171.643 62.534-71.227 191.812-51.016 197.272-50.075 5.622 0.907 9.867 5.728 9.867 11.537 0 0.854-0.092 1.688-0.265 2.489l0.014-0.078c-14.99 62.101-43.84 116.044-83.184 160.476l0.338-0.391c-34.913 37.665-84.612 61.198-139.812 61.325h-0.022zM332.201 294.781c2.689 0.151 5.835 0.238 9.001 0.238 48.762 0 92.717-20.584 123.649-53.538l0.084-0.092c33.338-37.861 58.776-83.529 73.219-133.85l0.605-2.466c-32.728-2.985-119.521-5.606-163.011 43.918-27.611 34.948-44.291 79.645-44.291 128.236 0 6.171 0.269 12.278 0.796 18.314l-0.055-0.783z"></path>
</svg>
