<!-- Generated by IcoMoon.io -->
<svg version="1.1" xmlns="http://www.w3.org/2000/svg" width="768" height="768" viewBox="0 0 768 768">
<title></title>
<g id="icomoon-ignore">
</g>
<path d="M384.128 586.052c-0.007 0-0.015 0-0.022 0-102.712 0-185.975-83.264-185.975-185.975s83.264-185.975 185.975-185.975c102.705 0 185.962 83.251 185.975 185.95v0.001c-0.103 102.664-83.291 185.867-185.94 186h-0.012zM384.128 238.3c-0.007 0-0.015 0-0.022 0-89.345 0-161.773 72.428-161.773 161.774s72.428 161.773 161.773 161.773c89.345 0 161.773-72.428 161.773-161.773 0-0.007 0-0.017 0-0.023v0.001c-0.116-89.285-72.464-161.634-161.741-161.752h-0.011z"></path>
<path d="M466.022 494.13c-0.008 0-0.020 0-0.033 0-3.322 0-6.329-1.351-8.501-3.531l-81.968-81.967c-2.195-2.181-3.557-5.204-3.557-8.544 0-0.012 0-0.024 0-0.036v0.002-94.491c0.29-6.46 5.596-11.586 12.103-11.586s11.81 5.125 12.101 11.56l0.001 0.025v89.467l78.41 78.43c2.194 2.189 3.549 5.216 3.549 8.556 0 6.676-5.412 12.090-12.090 12.090-0.014 0-0.028 0-0.042 0h0.003z"></path>
<path d="M384.103 642.668c-0.007 0-0.015 0-0.022 0-134.208 0-243.004-108.797-243.004-243.005s108.797-243.004 243.004-243.004c134.208 0 243.004 108.797 243.004 243.004 0 0.007 0 0.017 0 0.023v-0.001c-0.103 134.153-108.829 242.879-242.974 242.983h-0.009zM384.103 180.881c-0.007 0-0.015 0-0.022 0-120.817 0-218.756 97.939-218.756 218.756s97.94 218.756 218.756 218.756c120.8 0 218.731-97.914 218.756-218.71v-0.003c-0.104-120.784-97.959-218.68-218.718-218.849h-0.017z"></path>
<path d="M230.52 672.009c-0.020 0-0.044 0-0.066 0-6.662 0-12.065-5.403-12.065-12.065 0-2.212 0.595-4.286 1.635-6.068l-0.032 0.058 33.423-58.748c2.125-3.685 6.041-6.125 10.529-6.125 6.689 0 12.114 5.422 12.114 12.114 0 2.203-0.587 4.267-1.613 6.045l0.032-0.060-33.423 58.726c-2.108 3.682-6.014 6.124-10.489 6.124-0.014 0-0.029 0-0.043 0h0.003z"></path>
<path d="M537.688 672.009c-0.011 0-0.026 0-0.040 0-4.475 0-8.381-2.441-10.457-6.068l-0.032-0.061-33.423-58.726c-0.856-1.616-1.357-3.533-1.357-5.569 0-6.689 5.422-12.113 12.113-12.113 4.315 0 8.107 2.259 10.252 5.656l0.030 0.049 33.423 58.748c1.006 1.724 1.603 3.799 1.603 6.011 0 6.662-5.403 12.065-12.065 12.065-0.016 0-0.032 0-0.047 0h0.003z"></path>
<path d="M384.128 180.974c-0.014 0-0.031 0-0.047 0-6.676 0-12.090-5.412-12.090-12.090 0-0.007 0-0.017 0-0.023v0.001-60.678c0.29-6.46 5.596-11.586 12.103-11.586s11.81 5.126 12.101 11.56l0.001 0.025v60.678c0 0.020 0 0.046 0 0.069 0 6.65-5.393 12.044-12.044 12.044-0.007 0-0.017 0-0.023 0h0.001z"></path>
<path d="M408.74 120.206h-49.323c-0.156 0.007-0.343 0.011-0.527 0.011-6.689 0-12.113-5.422-12.113-12.113s5.422-12.113 12.113-12.113c0.184 0 0.371 0.005 0.553 0.012l-0.025-0.001h49.323c0.156-0.007 0.343-0.011 0.527-0.011 6.689 0 12.113 5.422 12.113 12.113s-5.422 12.113-12.113 12.113c-0.184 0-0.371-0.005-0.553-0.012l0.025 0.002z"></path>
<path d="M97.328 292.258c-0.029 0-0.061 0.001-0.097 0.001-3.602 0-6.838-1.563-9.069-4.049l-0.009-0.010c-12.516-14.142-20.159-32.852-20.159-53.345 0-23.925 10.415-45.416 26.962-60.188l60.273-53.335c14.143-12.509 32.852-20.15 53.341-20.15 23.924 0 45.415 10.414 60.191 26.953l0.070 0.078c1.88 2.129 3.026 4.945 3.026 8.026 0 3.61-1.573 6.851-4.070 9.078l-0.011 0.010-162.578 143.813c-2.081 1.88-4.831 3.051-7.854 3.12h-0.014zM208.636 125.365c-0.012 0-0.027 0-0.042 0-14.281 0-27.314 5.353-37.201 14.155l0.056-0.047-60.194 53.266c-10.852 9.59-17.926 23.24-18.827 38.55l-0.007 0.153c-0.071 1.058-0.112 2.29-0.112 3.535 0 9.988 2.592 19.371 7.139 27.513l-0.146-0.287 142.504-126.169c-9.134-6.667-20.588-10.668-32.975-10.668-0.070 0-0.14 0-0.209 0.001h0.010z"></path>
<path d="M670.878 292.258c-3.095-0.007-5.917-1.163-8.066-3.061l0.013 0.011-162.553-143.813c-2.512-2.23-4.085-5.467-4.085-9.072 0-3.092 1.158-5.913 3.065-8.053l-0.010 0.012c14.83-16.62 36.31-27.034 60.219-27.034 20.482 0 39.178 7.64 53.396 20.227l-0.086-0.074 60.242 53.266c16.599 14.857 26.994 36.35 26.994 60.266 0 20.482-7.622 39.184-20.188 53.421l0.074-0.088c-2.245 2.445-5.448 3.976-9.011 3.99h-0.004zM526.355 136.125l142.504 126.169c4.403-7.864 6.995-17.26 6.995-27.259 0-16.746-7.27-31.791-18.826-42.155l-0.053-0.047-60.193-53.266c-9.914-8.712-22.997-14.027-37.322-14.027-12.43 0-23.929 4.003-33.271 10.792l0.164-0.115z"></path>
</svg>
