<!-- Generated by IcoMoon.io -->
<svg version="1.1" xmlns="http://www.w3.org/2000/svg" width="768" height="768" viewBox="0 0 768 768">
<title></title>
<g id="icomoon-ignore">
</g>
<path d="M564.901 260.678c3.293 15.684 6.832 33.823 11.1 51.792 1.077 3.743 3.592 6.772 6.893 8.502l0.077 0.038c9.044 3.277 15.39 11.794 15.39 21.792 0 0.562-0.021 1.118-0.059 1.667l0.005-0.074c0.104 12.844 0.191 25.705 0 38.546 0.001 0.050 0.001 0.108 0.001 0.166 0 9.979-6.309 18.482-15.159 21.74l-0.16 0.053c-4.432 2.51-7.769 6.509-9.368 11.305l-0.040 0.143c-2.186 7.696-4.126 17.139-5.423 26.786l-0.12 1.095c-1.149 6.779-3.014 12.844 5.107 18.401 2.399 1.553 3.964 4.219 3.964 7.249 0 4.147-2.933 7.609-6.835 8.425l-0.056 0.009c-8.888 2.752-9.951 8.626-11.136 15.772-2.632 15.909-5.558 31.785-8.468 48.305 3.083 0.889 6.623 0.871 8.172 2.614 2.857 3.224 6.674 7.808 6.133 11.187-1.475 4.187-4.904 7.345-9.163 8.415l-0.090 0.020c-7.981 0.697-10.229 4.304-11.291 11.5-2.51 16.885-5.856 33.668-8.172 46.526l18.941 18.594-20.702 12.912-3.067-2.892c-1.567 8.259-2.946 16.538-4.722 24.761-2.096 15.864-15.534 27.977-31.802 27.977-0.871 0-1.732-0.036-2.588-0.103l0.113 0.007q-108.147 0.227-216.276 0c-0.712 0.055-1.54 0.087-2.377 0.087-16.302 0-29.782-12.095-31.95-27.802l-0.020-0.169c-1.743-7.859-2.928-15.822-4.357-23.56-8.486-4.427-23.84 2.561-23.49-12.703 0.122-4.826 9.951-9.444 18.228-16.659-2.543-14.551-5.768-33.632-9.357-52.627-0.668-2.197-2.329-3.905-4.448-4.621l-0.050-0.014c-7.196-1.099-16.381-1.203-14.917-10.874 0.803-5.349 7.894-9.758 13.715-16.345-2.474-14.306-5.035-31.716-8.713-48.792-1.745-4.526-4.958-8.164-9.045-10.403l-0.103-0.053c-8.626-5.228-9.444-10.456-3.382-18.505 2.888-3.882 4.626-8.768 4.635-14.061v-0.003c-0.969-9.217-2.332-17.351-4.141-25.318l0.273 1.428c-1.412-9.479-2.683-17.269-14.709-21.102-5.594-1.743-10.088-13.088-11.378-20.684-0.593-6.059-0.934-13.099-0.934-20.216 0-4.915 0.161-9.795 0.48-14.632l-0.035 0.656c-0.174-1.086-0.276-2.335-0.276-3.609 0-10.808 7.188-19.938 17.045-22.87l0.169-0.043c2.51-0.817 4.826-5.123 5.524-8.208 4.113-18.001 7.718-36.106 11.727-55.242-0.817-0.262-3.746-0.313-4.808-1.743-2.842-3.817-6.815-8.33-6.569-12.338 1.735-4.042 5.416-6.953 9.832-7.572l0.067-0.007c12.844 1.743 18.192-5.856 24.52-14.917 26.203-37.319 64.708-64.463 109.526-75.649l1.305-0.277c3.677-0.976 7.406-1.743 11.065-2.858 1.208-0.617 2.249-1.324 3.19-2.141l-0.019 0.017c0-13.679-0.227-27.881 0-42.19-0.019-0.412-0.029-0.892-0.029-1.376 0-17.641 14.302-31.943 31.943-31.943s31.943 14.302 31.943 31.943c0 0.423-0.007 0.844-0.023 1.262l0.002-0.060c0.245 7.127 0.122 14.273 0.14 21.416s0 14.219 0 21.556c2.272 1.033 5.088 2.083 7.981 2.953l0.505 0.13c51.326 11.074 94.115 41.418 121.289 82.913l0.45 0.732c3.243 3.427 7.229 6.113 11.705 7.806l0.217 0.071c5.768 2.979 11.831 5.402 17.774 8.068zM575.723 342.581h-383.184v40.846h383.148zM261.424 651.458c-1.898 27.236 1.743 31.367 26.714 31.367h191.687c25.129 0 28.525-3.868 26.941-31.367zM319.487 319.352h129.249l-6.551-62.316h-116.477zM334.038 543.067h100.339l4.373-61.567h-109.627zM327.436 457.437h113.269l3.868-50.693h-121.128zM427.601 629.117c1.603-21.504 3.137-41.981 4.688-62.734h-96.751l5.228 62.734zM436.314 234.556c-5.308-24.543-16.202-45.982-31.31-63.721l0.17 0.203c-4.514-6.454-11.911-10.622-20.283-10.622-6.339 0-12.121 2.392-16.493 6.321l0.023-0.021c-18.162 17.918-31.127 41.062-36.449 66.992l-0.145 0.847zM470.504 319.385h86.746c-6.188-20.911-11.588-39.748-17.634-58.43-1.627-2.598-4.385-4.357-7.566-4.598l-0.033-0.002c-22.323-0.368-44.646-0.209-67.963-0.209zM304.014 256.147c-23.35 0-45.204-0.14-67.056 0.191-3.248 0.097-6.113 1.664-7.963 4.054l-0.019 0.022c-8.96 17.229-14.351 37.57-14.69 59.141l-0.002 0.109h83.4c2.021-20.825 4.043-40.969 6.274-63.537zM307.501 481.414h-78.869l11.363 61.966h72.354c-1.673-21.069-3.278-41.213-4.862-61.984zM460.694 481.187c-1.568 21.016-3.101 41.423-4.722 62.96 22.986 0 43.879 0.209 64.754-0.245 2.91 0 7.823-2.91 8.295-5.228 3.869-18.786 6.97-37.763 10.351-57.507zM543.606 458.114l9.271-51.72h-86.364l-3.991 51.72zM215.123 406.272l9.533 51.233h80.926l-3.955-51.233zM524.177 566.593h-70.298l-4.322 62.072h63.501zM318.86 628.962l-4.808-62.543h-70.211l11.45 62.543zM523.409 235.028c-16.049-30.67-63.901-64.319-89.397-65.33 7.319 18.664 14.551 38.145 22.795 57.227 2.185 4.032 6.048 6.919 10.626 7.741l0.092 0.013c18.106 0.785 36.212 0.349 55.887 0.349zM242.848 234.469h63.832l28.51-66.969c-38.263 11.831-69.988 35.392-91.815 66.418l-0.368 0.551zM394.613 138.121c0-14.237 0.817-27.88-0.505-41.404-0.382-3.868-6.483-9.061-10.769-9.984-2.561-0.558-9.307 5.752-9.602 9.357-1.149 13.942-0.472 27.881-0.472 42.014z"></path>
<path d="M238.875 361.417c-6.761 5.63-10.664 11.345-13.942 10.96-4.286-0.505-8.017-5.716-11.989-8.903 3.067-3.623 5.856-9.811 9.289-10.193 4.252-0.488 8.871 4.009 16.643 8.138z"></path>
<path d="M399.509 362.602c-7.163 5.107-11.5 10.456-14.691 9.898-4.268-0.817-7.65-6.292-11.413-9.758 3.364-3.397 6.623-9.375 10.088-9.515 4.182-0.158 8.558 4.688 16.014 9.375z"></path>
<path d="M544.738 347.809c4.808 7.178 9.793 11.378 9.689 15.458 0 3.346-6.97 9.688-9.497 9.097-4.874-1.611-8.649-5.347-10.283-10.081l-0.034-0.112c-0.68-2.962 4.913-7.355 10.124-14.36z"></path>
<path d="M298.699 377.92c-5.228-7.11-10.823-11.5-10.124-14.464 1.668-4.868 5.431-8.632 10.183-10.265l0.114-0.035c2.51-0.609 9.393 5.768 9.515 9.167 0.122 4.077-4.862 8.381-9.688 15.595z"></path>
<path d="M484.306 362.22c-6.238 5.018-10.264 10.647-13.418 10.193-4.286-0.609-7.913-5.873-11.814-9.149 3.607-3.573 6.76-9.13 10.978-10.073 3.137-0.697 7.668 4.567 14.255 9.026z"></path>
</svg>
