<!-- Generated by IcoMoon.io -->
<svg version="1.1" xmlns="http://www.w3.org/2000/svg" width="768" height="768" viewBox="0 0 768 768">
<title></title>
<g id="icomoon-ignore">
</g>
<path d="M384.008 593.664c-0.019 0-0.039 0-0.061 0-2.666 0-5.084-1.045-6.878-2.745l0.006 0.005c-6.281-5.927-154.406-147.677-154.406-318.299 0-110.591 60.309-176.638 161.356-176.638s161.3 66.050 161.3 176.638c0 170.619-148.124 312.371-154.426 318.299-1.781 1.694-4.197 2.739-6.857 2.739-0.014 0-0.027 0-0.040 0h0.003zM384.008 116.098c-127.44 0-141.23 109.471-141.23 156.547 0 141.399 111.968 266.507 141.23 296.736 29.222-30.248 141.193-155.337 141.193-296.736 0-47.077-13.791-156.547-141.193-156.547z"></path>
<path d="M357.883 348.18h-0.242c-3.197-0.088-6.014-1.645-7.81-4.017l-0.020-0.025-55.481-74.341c-1.242-1.654-1.99-3.74-1.99-6.001 0-5.55 4.5-10.051 10.051-10.051 3.287 0 6.208 1.58 8.040 4.022l0.020 0.026 47.823 64.054 99.538-120.433c1.856-2.234 4.637-3.641 7.743-3.641 5.553 0 10.052 4.502 10.052 10.052 0 2.444-0.871 4.685-2.323 6.427l0.013-0.017-107.684 130.309c-1.856 2.227-4.63 3.635-7.732 3.635-0.001 0-0.001 0-0.002 0v0z"></path>
<path d="M384.029 672.014c-151.349 0-312.183-30.955-312.183-88.375 0-58.708 156.269-78.628 204.164-83.288 0.296-0.032 0.641-0.047 0.988-0.047 5.549 0 10.048 4.499 10.048 10.048 0 5.202-3.951 9.48-9.016 9.997l-0.043 0.004c-120.84 11.889-186.033 41.485-186.033 63.365 0 28.514 111.113 68.249 292.056 68.249s292.020-39.753 292.020-68.249c0-21.692-64.783-51.252-184.897-63.177-5.096-0.532-9.036-4.801-9.036-9.995 0-0.358 0.020-0.714 0.056-1.063l-0.005 0.044c0.591-5.129 4.908-9.076 10.148-9.076 0.304 0 0.605 0.014 0.903 0.039l-0.038-0.004c47.617 4.753 202.99 24.751 202.99 83.212-0.020 57.344-160.836 88.319-312.128 88.319z"></path>
</svg>
