<!-- Generated by IcoMoon.io -->
<svg version="1.1"
    xmlns="http://www.w3.org/2000/svg" width="768" height="768" viewBox="0 0 768 768">
    <title></title>
    <path d="M591.609 244.55h-415.17c-0.412-0.038-0.893-0.058-1.377-0.058-4.201 0-8.032 1.577-10.937 4.172l0.017-0.013c-2.641 2.543-4.282 6.109-4.282 10.057 0 0.791 0.067 1.567 0.192 2.323l-0.011-0.083 42.674 371.733c5.117 40.383 39.255 71.294 80.612 71.294 0.215 0 0.428-0.001 0.641-0.003h206.711c0.341 0.006 0.745 0.007 1.15 0.007 42.26 0 76.982-32.275 80.861-73.521l0.023-0.322 35.288-370.844c0.014-0.23 0.022-0.499 0.022-0.77 0-3.87-1.576-7.372-4.119-9.899l-0.001-0.001c-2.881-2.567-6.699-4.134-10.885-4.134-0.497 0-0.988 0.022-1.476 0.067l0.063-0.005zM539.923 628.532c-2.557 24.098-22.774 42.71-47.336 42.71-0.661 0-1.319-0.014-1.972-0.039l0.094 0.004h-206.745c-0.556 0.023-1.208 0.037-1.862 0.037-24.105 0-43.951-18.233-46.496-41.661l-0.019-0.207-41.094-351.95h379.066z"></path>
    <path d="M651.496 137.869h-169.036v-26.251c0.022-0.533 0.036-1.156 0.036-1.783 0-24.769-19.648-44.947-44.209-45.801l-0.079-0.002h-105.893c-0.291-0.008-0.631-0.010-0.973-0.010-25.056 0-45.414 20.106-45.824 45.064l-0.001 0.038q0 1.248 0 2.546v26.199h-168.986c-9.064 0-16.41 7.346-16.41 16.41s7.346 16.41 16.41 16.41h534.94c9.064 0 16.41-7.346 16.41-16.41s-7.346-16.41-16.41-16.41v0zM449.664 111.618v26.251h-131.279v-26.251c-0.068-0.507-0.11-1.093-0.11-1.688 0-7.241 5.872-13.113 13.113-13.113 0.335 0 0.667 0.012 0.994 0.038l-0.043-0.003h103.372c0.278-0.022 0.599-0.033 0.923-0.033 6.926 0 12.602 5.362 13.102 12.159l0.003 0.043c0.022 0.276 0.033 0.595 0.033 0.92 0 0.593-0.038 1.174-0.115 1.745l0.008-0.067z"></path>
</svg>
