<!-- Generated by IcoMoon.io -->
<svg version="1.1" xmlns="http://www.w3.org/2000/svg" width="768" height="768" viewBox="0 0 768 768">
<title></title>
<g id="icomoon-ignore">
</g>
<path d="M580.346 703.997c-17.515-0.42-33.342-7.326-45.241-18.396l0.041 0.038-292.138-292.101c-37.74-0.371-56.698-6.412-61.287-19.385-0.382-1.578-0.601-3.388-0.601-5.252 0-7.518 3.568-14.201 9.103-18.451l0.054-0.040 102.217-102.217c4.293-5.617 10.994-9.202 18.532-9.202 1.848 0 3.644 0.216 5.367 0.623l-0.157-0.031c12.969 4.625 19.012 23.602 19.385 61.323l291.943 291.961c10.372 11.734 16.702 27.248 16.702 44.24 0 35.908-28.274 65.212-63.772 66.865l-0.149 0.007zM199.033 368.557c0.408 0 7.087 6.698 47.84 6.698 0.005 0 0.009 0 0.015 0 2.527 0 4.813 1.023 6.471 2.677v0l294.583 294.601c8.294 7.357 19.273 11.847 31.301 11.847 26.108 0 47.272-21.164 47.272-47.272 0-12.112-4.554-23.16-12.046-31.523l0.038 0.045-294.439-294.44c-1.64-1.657-2.658-3.934-2.677-6.445v-0.005c0-42.523-7.372-47.962-7.406-47.998-0.143 0.301-2.375 1.967-3.545 3.545l-104.006 103.972c-1.41 1.163-2.533 2.621-3.283 4.283l-0.030 0.074zM196.517 357.162v0z"></path>
<path d="M189.925 256.966c-36.535-0.039-66.144-29.643-66.195-66.172v-0.006c0-33.293 52.569-113.856 58.47-122.946 1.753-2.341 4.521-3.839 7.636-3.839s5.884 1.499 7.619 3.815l0.018 0.024c5.971 9.089 58.47 89.654 58.47 122.946-0.051 36.472-29.557 66.037-66.005 66.177h-0.013zM189.925 89.831c-18.127 28.882-47.84 80.635-47.84 100.993 0 26.454 21.446 47.902 47.902 47.902s47.902-21.446 47.902-47.902v0c-0.125-20.359-29.908-72.13-47.962-100.993z"></path>
<path d="M458.092 445.417h-159.339c-5.048 0-9.142-4.093-9.142-9.143s4.093-9.143 9.142-9.143h159.339c5.048 0 9.143 4.093 9.143 9.143s-4.093 9.143-9.143 9.143v0z"></path>
</svg>
