<!-- Generated by IcoMoon.io -->
<svg version="1.1" xmlns="http://www.w3.org/2000/svg" width="768" height="768" viewBox="0 0 768 768">
<title></title>
<g id="icomoon-ignore">
</g>
<path d="M170.679 107.558c-5.178 0-9.375 4.195-9.375 9.375v55.413c0 5.18 4.197 9.375 9.375 9.375s9.375-4.195 9.375-9.375v-55.413c0-5.18-4.197-9.375-9.375-9.375z"></path>
<path d="M241.786 107.558c-5.178 0-9.375 4.195-9.375 9.375v55.413c0 5.18 4.197 9.375 9.375 9.375s9.375-4.195 9.375-9.375v-55.413c0-5.18-4.195-9.375-9.375-9.375z"></path>
<path d="M312.892 107.558c-5.178 0-9.375 4.195-9.375 9.375v55.413c0 5.18 4.197 9.375 9.375 9.375s9.375-4.195 9.375-9.375v-55.413c0-5.18-4.197-9.375-9.375-9.375z"></path>
<path d="M384 107.558c-5.178 0-9.375 4.195-9.375 9.375v55.413c0 5.18 4.197 9.375 9.375 9.375 5.179 0 9.375-4.195 9.375-9.375v-55.413c0-5.18-4.196-9.375-9.375-9.375z"></path>
<path d="M455.107 107.558c-5.179 0-9.375 4.195-9.375 9.375v55.413c0 5.18 4.196 9.375 9.375 9.375s9.375-4.195 9.375-9.375v-55.413c0-5.18-4.197-9.375-9.375-9.375z"></path>
<path d="M526.214 107.558c-5.179 0-9.375 4.195-9.375 9.375v55.413c0 5.18 4.196 9.375 9.375 9.375s9.375-4.195 9.375-9.375v-55.413c0-5.18-4.197-9.375-9.375-9.375z"></path>
<path d="M597.321 107.558c-5.179 0-9.375 4.195-9.375 9.375v55.413c0 5.18 4.196 9.375 9.375 9.375s9.375-4.195 9.375-9.375v-55.413c0-5.18-4.196-9.375-9.375-9.375z"></path>
<path d="M636.537 63.999h-505.074c-21.886 0-39.691 17.805-39.691 39.691v81.897c0 21.887 17.805 39.691 39.691 39.691h6.927v46.241c0 5.179 4.197 9.375 9.375 9.375s9.375-4.196 9.375-9.375v-46.241h453.721v80.844h-286.253c-18.11 0-32.843 14.733-32.843 32.843v35.626h-134.627v-59.244c0-5.18-4.197-9.375-9.375-9.375s-9.375 4.195-9.375 9.375v345.661c0 23.706 19.284 42.991 42.99 42.991h405.238c23.706 0 42.992-19.285 42.992-42.991v-435.729h6.927c21.887 0 39.692-17.805 39.692-39.691v-81.895c0-21.886-17.805-39.691-39.692-39.691zM610.86 565.1h-210.537c-5.179 0-9.375 4.196-9.375 9.375s4.196 9.375 9.375 9.375h210.538v77.161c0 13.366-10.874 24.241-24.241 24.241h-405.24c-13.367 0-24.242-10.874-24.242-24.241v-267.668h134.628v157.665c0 18.108 14.733 32.841 32.843 32.841h31.887c5.178 0 9.375-4.196 9.375-9.375s-4.197-9.375-9.375-9.375h-31.887c-7.77 0-14.093-6.322-14.093-14.091v-212.042c0-7.77 6.322-14.092 14.093-14.092h286.253zM657.479 185.588c0 11.545-9.396 20.941-20.942 20.941h-505.074c-11.547 0-20.941-9.396-20.941-20.941v-81.897c0-11.546 9.394-20.941 20.941-20.941h505.074c11.545 0 20.942 9.396 20.942 20.941z"></path>
<path d="M378.375 420.241h177.488c5.179 0 9.375-4.196 9.375-9.375s-4.196-9.375-9.375-9.375h-177.488c-5.178 0-9.375 4.196-9.375 9.375s4.197 9.375 9.375 9.375z"></path>
<path d="M378.375 494.611h177.488c5.179 0 9.375-4.196 9.375-9.375s-4.196-9.375-9.375-9.375h-177.488c-5.178 0-9.375 4.196-9.375 9.375s4.197 9.375 9.375 9.375z"></path>
</svg>
