<!-- Generated by IcoMoon.io -->
<svg version="1.1" xmlns="http://www.w3.org/2000/svg" width="768" height="768" viewBox="0 0 768 768">
<title></title>
<g id="icomoon-ignore">
</g>
<path d="M629.945 704.326h-491.918c-40.898-0.059-74.035-33.197-74.095-74.091v-491.921c0.059-40.898 33.197-74.035 74.091-74.095h491.921c40.897 0.059 74.035 33.197 74.095 74.091v491.921c-0.059 40.898-33.197 74.035-74.091 74.095h-0.007zM138.029 88.906c-27.275 0.030-49.378 22.132-49.407 49.404v491.921c0.030 27.275 22.132 49.378 49.404 49.407h491.921c27.275-0.030 49.378-22.132 49.407-49.404v-491.921c-0.030-27.275-22.132-49.378-49.404-49.407h-0.004z"></path>
<path d="M383.962 704.326c0 0 0 0 0 0-6.809 0-12.333-5.52-12.333-12.333 0-0.019 0-0.037 0-0.054v0.004-615.34c-0.007-0.17-0.013-0.367-0.013-0.568 0-6.824 5.533-12.358 12.358-12.358s12.358 5.533 12.358 12.358c0 0.201-0.006 0.398-0.014 0.595l0.001-0.028v615.365c-0.015 6.82-5.539 12.343-12.356 12.358h-0.002z"></path>
<path d="M691.656 396.604h-615.34c-0.17 0.007-0.367 0.013-0.568 0.013-6.824 0-12.358-5.533-12.358-12.358s5.533-12.358 12.358-12.358c0.201 0 0.398 0.006 0.595 0.014l-0.028-0.001h615.365c0.17-0.007 0.368-0.013 0.568-0.013 6.824 0 12.358 5.533 12.358 12.358s-5.533 12.358-12.358 12.358c-0.201 0-0.398-0.006-0.595-0.014l0.028 0.001z"></path>
<path d="M227.355 314.12c-0.007 0-0.017 0-0.025 0-6.795 0-12.305-5.51-12.305-12.305 0-0.008 0-0.019 0-0.027v0.002-138.343c0.311-6.576 5.719-11.791 12.346-11.791s12.034 5.214 12.344 11.763l0.001 0.028v138.343c0 0 0 0 0 0 0 6.809-5.52 12.333-12.333 12.333-0.008 0-0.019 0-0.027 0h0.002z"></path>
<path d="M296.409 244.963h-138.29c-6.576-0.311-11.791-5.719-11.791-12.346s5.214-12.034 11.763-12.344l0.028-0.001h138.29c0.17-0.007 0.368-0.013 0.568-0.013 6.824 0 12.358 5.533 12.358 12.358s-5.533 12.358-12.358 12.358c-0.201 0-0.398-0.006-0.595-0.014l0.028 0.001z"></path>
<path d="M178.473 599.947c-6.804-0.029-12.307-5.549-12.307-12.358 0-3.407 1.378-6.492 3.609-8.727v0l97.792-97.793c2.237-2.236 5.326-3.62 8.74-3.62 6.825 0 12.36 5.533 12.36 12.36 0 3.414-1.384 6.503-3.62 8.74l-97.792 97.793c-2.259 2.225-5.357 3.598-8.776 3.606h-0.002z"></path>
<path d="M276.265 599.947c-3.394-0.024-6.463-1.397-8.701-3.607l-97.791-97.791c-2.237-2.236-3.62-5.326-3.62-8.74 0-6.825 5.533-12.36 12.36-12.36 3.414 0 6.503 1.384 8.74 3.62l97.792 97.793c2.23 2.24 3.611 5.328 3.611 8.74s-1.378 6.5-3.611 8.74l0.001-0.001c-2.259 2.225-5.356 3.599-8.776 3.606h-0.002z"></path>
<path d="M602.565 244.963h-138.16c-0.17 0.007-0.368 0.013-0.568 0.013-6.824 0-12.358-5.533-12.358-12.358s5.533-12.358 12.358-12.358c0.201 0 0.398 0.006 0.595 0.014l-0.028-0.002h138.289c0.17-0.007 0.368-0.013 0.568-0.013 6.824 0 12.358 5.533 12.358 12.358s-5.533 12.358-12.358 12.358c-0.201 0-0.398-0.006-0.595-0.014l0.028 0.002z"></path>
<path d="M487.477 601.384c-6.804-0.028-12.307-5.549-12.307-12.358 0-3.407 1.378-6.492 3.609-8.727v0l97.792-97.793c2.236-2.236 5.326-3.62 8.74-3.62 6.825 0 12.36 5.533 12.36 12.36 0 3.414-1.384 6.503-3.62 8.74l-97.792 97.793c-2.23 2.229-5.311 3.606-8.715 3.606-0.023 0-0.046 0-0.068 0h0.004z"></path>
<path d="M487.397 517.23c-13.566-0.015-24.558-11.015-24.558-24.587 0-13.579 11.008-24.587 24.587-24.587 13.568 0 24.571 10.993 24.587 24.557v0.001c-0.015 13.586-11.026 24.597-24.61 24.612h-0.001zM487.397 492.619l0.158 0.158 12.228-0.158z"></path>
<path d="M579.468 609.301c-13.579 0-24.587-11.008-24.587-24.587s11.008-24.587 24.587-24.587c13.568 0 24.571 10.993 24.587 24.557v0.001c-0.015 13.578-11.011 24.582-24.583 24.612h-0.004zM579.311 584.689h12.383z"></path>
</svg>
