<!-- Generated by IcoMoon.io -->
<svg version="1.1" xmlns="http://www.w3.org/2000/svg" width="768" height="768" viewBox="0 0 768 768">
<title></title>
<g id="icomoon-ignore">
</g>
<path fill="#e9e9e0" d="M486.694 63.994h-331.685c-9.235 0-16.726 7.491-16.726 22.029v606.551c2.45 6.718 8.782 11.429 16.215 11.429 0.179 0 0.359-0.003 0.536-0.007l-0.025 0.001h457.984c0.152 0.006 0.332 0.007 0.511 0.007 7.433 0 13.765-4.711 16.178-11.309l0.038-0.119v-480.252c0-7.947-1.068-10.507-2.933-12.404l-132.993-132.993c-1.825-1.803-4.33-2.918-7.099-2.932h-0.003z"></path>
<path fill="#d9d7ca" d="M492.574 65.723v135.415h135.415z"></path>
<path fill="#cc4b4c" d="M287.017 444.84v0c-4.172-0.008-8.017-1.409-11.092-3.76l0.044 0.033c-7.768-4.922-12.849-13.472-12.849-23.21 0-0.848 0.038-1.689 0.113-2.52l-0.007 0.107c2.084-18.64 25.080-38.078 68.393-57.923 16.019-34.328 30.814-75.196 42.083-117.503l1.214-5.357c-11.405-24.826-22.488-57.023-14.405-75.919 2.048-6.397 6.769-11.419 12.817-13.826l0.148-0.052c3.4-0.994 7.361-1.693 11.442-1.958l0.166-0.007c5.762 0 10.829 7.422 14.405 11.98 3.389 4.304 11.016 13.403-4.27 77.731 16.12 33.053 35.528 61.499 58.415 86.729l-0.273-0.306c11.408-2.34 24.637-3.815 38.161-4.081l0.222-0.004c17.895 0 28.808 4.168 33.163 12.76 1.124 2.627 1.777 5.683 1.777 8.893 0 6.113-2.373 11.675-6.247 15.81l0.011-0.012c-5.521 8.22-14.783 13.556-25.29 13.556-0.046 0-0.091 0-0.137 0h0.008c-19.389-2.572-36.173-12.127-48.038-26.009l-0.086-0.104c-38.603 8.417-72.314 19.499-104.415 33.573l3.517-1.374c-8.521 18.742-17.591 34.699-27.898 49.743l0.716-1.107c-11.709 16.471-21.809 24.113-31.808 24.113zM317.522 386.257c-24.419 13.727-34.385 25.013-35.094 31.367-0.118 1.051-0.424 3.814 4.931 7.913 1.611-0.543 11.558-5.084 30.080-39.28zM473.424 335.421c9.321 7.168 11.59 10.793 17.676 10.793 0.46 0.043 0.998 0.067 1.537 0.067 4.81 0 9.161-1.972 12.289-5.151l0.003-0.003c1.058-1.362 1.943-2.933 2.586-4.621l0.040-0.125c-1.405-0.745-3.271-2.255-13.42-2.255-7.373 0.023-14.603 0.522-21.697 1.464l0.852-0.093zM388.051 260.195c-10.244 35.156-20.627 63.851-32.519 91.748l2.017-5.322c20.112-8.144 44.888-16.060 70.329-22.273l3.91-0.806c-15.884-18.574-30.41-39.278-42.86-61.309l-1.012-1.951zM381.119 163.486c-4.068 4.751-6.543 10.972-6.543 17.768 0 7.374 2.915 14.069 7.653 18.997l-0.007-0.007c10.693-24.098-0.745-36.841-1.238-36.671z"></path>
<path fill="#cc4b4c" d="M612.992 703.996h-457.984c-9.237 0-16.726-7.489-16.726-16.726v-177.561h491.435v177.561c0 9.237-7.489 16.726-16.726 16.726v0z"></path>
<path fill="#fff" d="M262.684 669.716h-18.758v-115.234h33.145c5.196 0.005 10.189 0.86 14.851 2.435l-0.327-0.097c4.956 1.627 9.245 4.024 12.964 7.087l-0.067-0.053c3.758 3.1 6.848 6.862 9.123 11.122l0.097 0.198c2.224 4.196 3.529 9.174 3.529 14.457 0 0.167-0.002 0.332-0.004 0.497v-0.024c0.003 0.173 0.005 0.374 0.005 0.577 0 5.509-1.091 10.763-3.067 15.557l0.098-0.272c-1.938 4.703-4.749 8.69-8.263 11.926l-0.023 0.023c-3.592 3.219-7.855 5.77-12.549 7.411l-0.262 0.080c-4.751 1.678-10.231 2.648-15.938 2.648-0.218 0-0.434-0.001-0.652-0.005l0.034 0.001h-13.946v41.57zM262.684 568.783v45.62h17.183c2.431-0.005 4.762-0.431 6.922-1.214l-0.142 0.045c2.404-0.871 4.462-2.175 6.173-3.833l-0.005 0.005c2.017-2.026 3.569-4.514 4.487-7.291l0.038-0.131c1.085-3.233 1.71-6.959 1.71-10.829 0-0.364-0.007-0.727-0.017-1.087l0.002 0.053c-0.041-2.317-0.322-4.543-0.821-6.688l0.041 0.217c-0.607-2.685-1.719-5.044-3.238-7.082l0.036 0.050c-1.784-2.362-4.055-4.264-6.668-5.575l-0.11-0.050c-3.086-1.447-6.703-2.293-10.517-2.293-0.371 0-0.743 0.007-1.109 0.023l0.053-0.002h-14.064z"></path>
<path fill="#fff" d="M432.212 608.947c0.010 0.515 0.018 1.118 0.018 1.726 0 8.034-1.119 15.807-3.213 23.171l0.144-0.596c-1.839 6.444-4.485 12.079-7.882 17.167l0.139-0.219c-2.85 4.243-6.354 7.802-10.41 10.625l-0.129 0.085c-3.262 2.256-6.996 4.229-10.958 5.741l-0.364 0.122c-2.883 1.112-6.255 1.987-9.751 2.48l-0.248 0.028c-1.968 0.27-4.313 0.457-6.688 0.523l-0.090 0.002h-43.535v-115.234h34.688c0.383-0.008 0.837-0.012 1.292-0.012 8.729 0 17.063 1.698 24.687 4.779l-0.442-0.158c7.147 2.918 13.236 7.072 18.273 12.256l0.011 0.012c4.643 4.849 8.333 10.648 10.748 17.074l0.113 0.347c2.274 5.951 3.592 12.835 3.592 20.027 0 0.019 0 0.038 0 0.056v-0.004zM376.596 655.972c0.824 0.078 1.782 0.122 2.752 0.122 10.072 0 19.026-4.796 24.698-12.232l0.054-0.076c5.4-8.995 8.593-19.853 8.593-31.452 0-1.358-0.043-2.708-0.129-4.045l0.008 0.183c0-0.022 0-0.053 0-0.081 0-5.017-0.619-9.892-1.781-14.55l0.086 0.413c-1.252-4.931-3.556-9.212-6.672-12.76l0.029 0.035c-3.605-3.992-8.073-7.133-13.118-9.136l-0.236-0.082c-5.925-2.254-12.775-3.558-19.932-3.558-0.683 0-1.365 0.011-2.044 0.037l0.098-0.003h-10.929v87.189z"></path>
<path fill="#fff" d="M478.458 568.783v36.215h48.128v12.812h-48.128v51.872h-19.030v-115.234h72.022v14.217z"></path>
</svg>
