<!-- Generated by IcoMoon.io -->
<svg version="1.1"
    xmlns="http://www.w3.org/2000/svg" width="768" height="768" viewBox="0 0 768 768">
    <path fill="#7bed8d" d="M384 63.999c176.552 0 320.001 143.449 320.001 320.001s-143.449 320.001-320.001 320.001-320.001-143.449-320.001-320.001 143.449-320.001 320.001-320.001zM485.517 470.069l-88.276-88.276 88.276-88.276c4.414-4.415 4.414-11.033 0-15.448s-11.033-4.415-15.448 0l-88.276 88.276-88.276-88.276c-4.415-4.415-11.033-4.415-15.448 0s-4.415 11.033 0 15.448l88.276 88.276-88.276 88.276c-4.415 4.414-4.415 11.033 0 15.448 2.207 2.207 4.415 2.207 8.827 2.207s6.622 0 8.827-2.207l88.276-88.276 88.276 88.276c2.207 2.207 4.414 2.207 8.827 2.207s6.622 0 8.827-2.207c0-4.414 0-11.033-4.414-15.448z"></path>
</svg>
