<!-- Generated by IcoMoon.io -->
<svg version="1.1" xmlns="http://www.w3.org/2000/svg" width="768" height="768" viewBox="0 0 768 768">
<title></title>
<g id="icomoon-ignore">
</g>
<path fill="#000" d="M550.882 310.76c-5.056-1.208-10.132 1.913-11.338 6.97-7.681 32.188-35.294 39.284-60.771 38.409l5.773-17.438c1.619-4.889 1.238-10.117-1.075-14.719-2.313-4.601-6.277-8.028-11.167-9.648l-9.799-3.246 10.583-31.958c1.946-5.875 1.492-12.155-1.283-17.68-2.777-5.531-7.546-9.652-13.428-11.599l-54.277-17.973c-12.133-4.013-25.263 2.585-29.281 14.712l-10.582 31.958-9.799-3.245c-10.090-3.337-21.023 2.153-24.366 12.245l-5.745 17.349c-20.852-14.507-38.573-36.62-25.578-66.908 2.048-4.778-0.161-10.311-4.939-12.361-4.779-2.048-10.311 0.16-12.361 4.94-14.915 34.762-1.507 68.272 36.744 92.847l-8.107 24.476-67.178-22.246c-4.936-1.635-10.258 1.042-11.892 5.978s1.042 10.258 5.977 11.894l67.178 22.244-9.127 27.564c-45.368-3.106-76.118 15.776-84.896 52.568-1.208 5.055 1.914 10.132 6.97 11.338 0.734 0.175 1.468 0.261 2.193 0.261 4.256 0 8.116-2.907 9.146-7.231 7.655-32.080 35.105-39.233 60.507-38.418-3.577 12.438-2.375 25.567 3.473 37.197 6.157 12.256 16.717 21.378 29.738 25.688l56.991 18.872c5.336 1.766 10.763 2.606 16.103 2.606 20.903 0 40.46-12.877 48.113-33.324 20.978 14.503 38.927 36.683 25.869 67.112-2.048 4.778 0.161 10.311 4.94 12.361 1.209 0.517 2.467 0.764 3.706 0.764 3.652 0 7.124-2.137 8.654-5.705 14.947-34.839 1.445-68.423-37.007-93.013l9.104-27.494 67.174 22.244c0.982 0.324 1.979 0.479 2.96 0.479 3.949 0 7.626-2.504 8.933-6.458 1.634-4.934-1.043-10.258-5.978-11.893l-67.174-22.243 8.080-24.403c3.334 0.235 6.595 0.368 9.77 0.368 40.169 0 67.283-18.743 75.437-52.915 1.207-5.054-1.914-10.132-6.972-11.336zM392.689 252.512c0.755-2.274 3.217-3.516 5.495-2.759l54.278 17.973c1.493 0.494 2.22 1.574 2.522 2.172 0.3 0.6 0.731 1.826 0.236 3.32l-10.583 31.959-62.528-20.707zM426.178 455.092c-5.635 17.020-24.067 26.285-41.095 20.647l-19.558-6.476 32.543-98.267c1.634-4.936-1.042-10.26-5.977-11.895-4.942-1.635-10.26 1.042-11.893 5.977l-32.543 98.268-19.562-6.477c-8.245-2.731-14.935-8.509-18.835-16.27s-4.543-16.578-1.813-24.823l40.499-122.304c0.079-0.239 0.341-0.368 0.579-0.291l49.998 16.555-4.518 13.642c-1.634 4.936 1.043 10.26 5.978 11.894 0.982 0.324 1.978 0.479 2.959 0.479 3.949 0 7.626-2.504 8.933-6.457l4.518-13.643 49.996 16.555c0.053 0.018 0.181 0.058 0.264 0.229 0.085 0.172 0.043 0.296 0.025 0.351z"></path>
<path fill="#000" d="M694.59 374.587h-4.942c-2.348-78.156-33.878-151.29-89.41-206.825s-128.668-87.063-206.825-89.41v-4.942c0-5.198-4.212-9.412-9.413-9.412-5.197 0-9.412 4.212-9.412 9.412v4.942c-78.15 2.347-151.295 33.878-206.825 89.41-55.535 55.535-87.063 128.668-89.41 206.825h-4.943c-5.198 0-9.412 4.212-9.412 9.413s4.213 9.412 9.412 9.412h4.943c2.347 78.156 33.877 151.29 89.41 206.825 55.535 55.537 128.668 87.064 206.825 89.411v4.942c0 5.197 4.213 9.412 9.412 9.412s9.413-4.212 9.413-9.412v-4.942c78.156-2.347 151.29-33.877 206.825-89.411 55.537-55.535 87.064-128.669 89.41-206.825h4.942c5.197 0 9.412-4.212 9.412-9.413s-4.212-9.413-9.412-9.413zM670.813 374.587h-33.085c-4.854-132.54-111.773-239.456-244.313-244.315v-33.083c150.775 4.883 272.515 126.624 277.398 277.398zM374.59 97.189v33.085c-132.54 4.854-239.456 111.773-244.313 244.313h-33.085c4.883-150.775 126.624-272.515 277.398-277.398zM97.192 393.412h33.085c4.856 132.54 111.774 239.456 244.313 244.315v33.085c-150.775-4.885-272.515-126.624-277.398-277.399zM393.415 670.81v-33.089c69.214-2.572 134.658-33.385 180.764-85.476 3.444-3.893 3.082-9.841-0.811-13.285s-9.841-3.082-13.285 0.811c-42.534 48.053-102.845 76.553-166.668 79.114v-34.727c0-5.197-4.212-9.413-9.412-9.413-5.197 0-9.413 4.212-9.413 9.413v34.733c-122.158-4.838-220.642-103.317-225.476-225.476h34.733c5.197 0 9.412-4.212 9.412-9.412s-4.214-9.413-9.413-9.413h-34.733c4.837-122.159 103.319-220.642 225.476-225.476v34.733c0 5.197 4.213 9.412 9.412 9.412s9.413-4.212 9.413-9.413v-34.733c122.159 4.837 220.642 103.317 225.476 225.476h-34.733c-5.197 0-9.413 4.212-9.413 9.412s4.212 9.413 9.413 9.413h34.732c-1.583 39.766-13.154 78.426-33.742 112.35-2.695 4.445-1.281 10.232 3.163 12.929 4.442 2.692 10.232 1.283 12.929-3.163 22.373-36.868 34.908-78.902 36.5-122.116h33.071c-4.885 150.775-126.624 272.515-277.399 277.398z"></path>
</svg>
