<!-- Generated by IcoMoon.io -->
<svg version="1.1" xmlns="http://www.w3.org/2000/svg" width="768" height="768" viewBox="0 0 768 768">
<title></title>
<g id="icomoon-ignore">
</g>
<path d="M509.093 671.76c-61.722-0.263-111.655-50.36-111.655-112.121 0-8.434 0.931-16.651 2.696-24.551l-0.142 0.749-49.902-49.902c-1.483-1.483-2.401-3.533-2.401-5.795 0-4.526 3.671-8.196 8.196-8.196 2.263 0 4.312 0.917 5.795 2.401v0l53.179 53.179c1.485 1.474 2.405 3.514 2.405 5.768 0 0.749-0.101 1.471-0.29 2.159l0.014-0.058c-1.964 7.254-3.096 15.585-3.096 24.178 0 26.418 10.675 50.344 27.942 67.697l-0.005-0.005c17.192 17.351 41.026 28.091 67.37 28.091 9.63 0 18.926-1.436 27.684-4.106l-0.671 0.176-54.007-54.029c-5.596-5.601-9.058-13.333-9.058-21.877s3.46-16.277 9.058-21.877l19.27-19.27c5.604-5.591 13.335-9.048 21.877-9.048s16.274 3.459 21.878 9.049l54.945 54.945c2.977-8.834 4.697-19.010 4.697-29.586 0-52.761-42.769-95.531-95.531-95.531-8.641 0-17.016 1.148-24.976 3.298l0.668-0.155c-0.633 0.177-1.36 0.277-2.111 0.277-2.259 0-4.304-0.92-5.78-2.407l-53.179-53.18c-1.483-1.483-2.401-3.533-2.401-5.795 0-4.525 3.671-8.196 8.196-8.196 2.263 0 4.312 0.917 5.795 2.401v0l49.902 49.902c7.173-1.639 15.411-2.575 23.869-2.575 61.805 0 111.91 50.104 111.91 111.91 0 17.329-3.94 33.742-10.973 48.385l0.29-0.671c-1.116 2.394-3.304 4.122-5.928 4.588l-0.047 0.007c-0.429 0.079-0.924 0.127-1.429 0.127-2.266 0-4.317-0.918-5.803-2.401v0l-63.814-63.814c-2.637-2.622-6.272-4.242-10.286-4.242s-7.647 1.62-10.286 4.242l-19.27 19.144c-2.61 2.642-4.223 6.276-4.223 10.286s1.612 7.642 4.226 10.285l63.090 63.090c1.48 1.486 2.396 3.535 2.396 5.797 0 0.537-0.051 1.062-0.151 1.571l0.007-0.051c-0.504 2.704-2.3 4.903-4.715 5.956l-0.051 0.020c-13.28 6.099-28.802 9.687-45.154 9.763h-0.028z"></path>
<path d="M260.774 393.253c-2.272-0.007-4.323-0.931-5.807-2.423l-41.692-41.692c-7.173 1.639-15.411 2.575-23.869 2.575-61.805 0-111.91-50.104-111.91-111.91 0-17.329 3.94-33.743 10.973-48.386l-0.29 0.671c1.334-2.801 4.145-4.704 7.399-4.704 2.262 0 4.309 0.921 5.791 2.408l63.815 63.814c2.637 2.614 6.266 4.228 10.273 4.228s7.639-1.615 10.274-4.229l19.269-19.269c2.632-2.637 4.259-6.277 4.259-10.297s-1.626-7.658-4.259-10.297v0l-63.092-63.068c-1.486-1.487-2.405-3.54-2.405-5.807 0-3.334 1.988-6.203 4.84-7.491l0.051-0.020c13.28-6.049 28.799-9.571 45.14-9.571 30.91 0 58.873 12.607 79.033 32.96l0.007 0.007c20.227 20.332 32.731 48.364 32.731 79.315 0 8.397-0.921 16.579-2.664 24.449l0.14-0.749 43.754 43.735c1.487 1.487 2.407 3.541 2.407 5.807 0 4.537-3.676 8.212-8.212 8.212-2.268 0-4.322-0.92-5.807-2.407l-46.967-46.967c-1.477-1.489-2.392-3.539-2.392-5.801 0-0.735 0.097-1.45 0.277-2.126l-0.013 0.058c1.974-7.267 3.107-15.613 3.107-24.22 0-26.417-10.67-50.339-27.933-67.696l0.005 0.005c-17.205-17.347-41.048-28.088-67.398-28.088-9.625 0-18.918 1.435-27.674 4.097l0.671-0.176 54.029 54.029c5.58 5.605 9.031 13.339 9.031 21.878s-3.449 16.271-9.031 21.879l-19.269 19.269c-5.605 5.599-13.347 9.061-21.899 9.061s-16.291-3.461-21.899-9.061l-54.901-54.921c-2.992 8.854-4.72 19.049-4.72 29.647 0 52.724 42.74 95.467 95.467 95.467 8.666 0 17.062-1.154 25.042-3.319l-0.667 0.155c0.635-0.177 1.363-0.277 2.115-0.277 2.264 0 4.314 0.92 5.796 2.406v0l44.947 44.947c1.469 1.487 2.377 3.529 2.377 5.786 0 4.529-3.658 8.205-8.181 8.233h-0.004z"></path>
<path d="M172.856 631.024c-17.041-1.369-31.961-9.462-42.28-21.589l-0.074-0.088c-13.148-10.865-21.467-27.173-21.467-45.424 0-0.207 0.002-0.412 0.005-0.616v0.033c1.35-11.315 7.156-21.063 15.584-27.583l0.094-0.071 292.353-284.269c1.835-6.288 2.892-13.509 2.892-20.981 0-12.659-3.032-24.612-8.411-35.172l0.204 0.439c-9.779-13.919-25.163-23.333-42.802-24.956l-0.231-0.018c-4.030-0.534-8.692-0.843-13.422-0.843-8.132 0-16.055 0.903-23.669 2.614l0.719-0.136c-11.742 1.977-21.887 3.679-28.76-2.828-3.581-4.302-5.754-9.886-5.754-15.977 0-1.875 0.207-3.703 0.598-5.458l-0.032 0.168c3.9-16.283 15.114-29.338 29.891-35.693l0.335-0.128c18.082-10.201 39.704-16.208 62.729-16.208 16.868 0 32.981 3.226 47.757 9.093l-0.875-0.305c21.994 10.945 39.934 21.184 57.281 32.275l-2.465-1.476c4.485 3.023 9.747 6.117 15.195 8.906l0.885 0.412c1.712-0.743 3.11-1.453 4.458-2.236l-0.206 0.111c4.102-3.069 9.274-4.917 14.877-4.917 3.443 0 6.724 0.695 9.705 1.957l-0.165-0.061c3.595 2.126 66.709 56.134 67.856 70.196 0.169 1.765 0.236 4.785 0.317 8.507-0.034 1.060-0.049 2.313-0.049 3.566 0 10.703 1.321 21.096 3.811 31.028l-0.185-0.877c5.914 5.872 15.337 11.422 20.357 10.104 16.784-4.701 51.497 35.887 51.858 36.31 5.977 7.296 11.041 14.89 7.637 21.697-0.447 0.957-72.47 87.85-88.83 83.81-20.703-13.914-38.14-30.869-52.149-50.443l-0.412-0.608c-1.178-1.792-1.876-3.987-1.876-6.346 0-1.117 0.155-2.197 0.452-3.22l-0.020 0.083c0.142-0.822 0.223-1.771 0.223-2.735 0-3.635-1.153-7.006-3.11-9.759l0.034 0.052c-5.667-6.076-13.721-9.867-22.658-9.867-0.686 0-1.369 0.021-2.044 0.066l0.091-0.007c-4.019-0.371-8.693-0.582-13.414-0.582-5.667 0-11.261 0.304-16.772 0.897l0.682-0.061-285.334 293.397c-6.595 8.524-16.338 14.339-27.457 15.7l-0.197 0.020c-1.298 0.043-2.53 0.106-3.766 0.106zM356.515 153.333c0.074 0 0.165-0.001 0.253-0.001 5.17 0 10.236 0.434 15.168 1.265l-0.532-0.074c22.75 2.32 42.228 14.608 54.223 32.366l0.169 0.263c6.603 12.619 10.475 27.561 10.475 43.409 0 9.853-1.497 19.353-4.276 28.292l0.182-0.674c-0.431 1.343-1.166 2.488-2.125 3.401l-0.005 0.004-294.354 286.207c-0.325 0.344-0.687 0.645-1.084 0.9l-0.022 0.014c-5.059 3.878-8.505 9.641-9.287 16.222l-0.010 0.115c4.281 25.404 24.039 45.176 49.079 49.429l0.355 0.048c6.725-0.789 12.511-4.269 16.336-9.321l0.044-0.061c0.292-0.385 0.587-0.722 0.897-1.045l-0.004 0.005 285.038-293.333c2.809-4.53 7.276-7.358 42.542-5.68 0.671-0.034 1.46-0.058 2.251-0.058 14.278 0 26.998 6.681 35.199 17.084l0.074 0.095c3.608 5.283 5.759 11.809 5.759 18.838 0 1.774-0.138 3.515-0.401 5.216l0.023-0.189c12.093 15.304 25.298 28.786 39.797 40.756l0.451 0.359c25.29-22.442 48.291-46.022 69.509-71.158l0.836-1.019c-10.811-14.764-24.188-26.953-39.571-36.122l-0.61-0.336c-0.64 0.034-1.385 0.050-2.138 0.050-13.252 0-25.163-5.753-33.37-14.898l-0.036-0.042c-6.104-6.146-7.532-19.824-8.104-44.668 0-2.722 0-5.020-0.192-6.637-18.131-21.319-37.627-40.365-58.741-57.493l-0.817-0.641c-1.342-0.765-6.19 1.808-8.744 3.19-2.938 1.795-6.351 3.19-9.988 4l-0.223 0.043c-5.891 0.895-11.912-2.894-26.377-11.85-14.525-9.395-32.009-19.376-50.021-28.462l-3.392-1.552c-11.753-4.49-25.344-7.090-39.543-7.090-20.17 0-39.111 5.246-55.54 14.45l0.573-0.296c-12.997 7.147-20.93 15.614-21.781 23.272-0.234 1.013-0.368 2.178-0.368 3.37 0 1.558 0.227 3.063 0.651 4.484l-0.029-0.112c0.061 0 0.132 0.001 0.205 0.001 5.108 0 10.080-0.588 14.847-1.705l-0.439 0.088c8.113-1.603 17.495-2.583 27.084-2.702l0.101-0.001z"></path>
</svg>
